%TF.GenerationSoftware,KiCad,Pcbnew,9.0.0-9.0.0-2~ubuntu24.04.1*%
%TF.CreationDate,2025-03-08T17:31:24+00:00*%
%TF.ProjectId,g5500-net-interface,67353530-302d-46e6-9574-2d696e746572,rev?*%
%TF.SameCoordinates,Original*%
%TF.FileFunction,Copper,L2,Bot*%
%TF.FilePolarity,Positive*%
%FSLAX46Y46*%
G04 Gerber Fmt 4.6, Leading zero omitted, Abs format (unit mm)*
G04 Created by KiCad (PCBNEW 9.0.0-9.0.0-2~ubuntu24.04.1) date 2025-03-08 17:31:24*
%MOMM*%
%LPD*%
G01*
G04 APERTURE LIST*
G04 Aperture macros list*
%AMRoundRect*
0 Rectangle with rounded corners*
0 $1 Rounding radius*
0 $2 $3 $4 $5 $6 $7 $8 $9 X,Y pos of 4 corners*
0 Add a 4 corners polygon primitive as box body*
4,1,4,$2,$3,$4,$5,$6,$7,$8,$9,$2,$3,0*
0 Add four circle primitives for the rounded corners*
1,1,$1+$1,$2,$3*
1,1,$1+$1,$4,$5*
1,1,$1+$1,$6,$7*
1,1,$1+$1,$8,$9*
0 Add four rect primitives between the rounded corners*
20,1,$1+$1,$2,$3,$4,$5,0*
20,1,$1+$1,$4,$5,$6,$7,0*
20,1,$1+$1,$6,$7,$8,$9,0*
20,1,$1+$1,$8,$9,$2,$3,0*%
G04 Aperture macros list end*
%TA.AperFunction,ComponentPad*%
%ADD10R,1.700000X1.700000*%
%TD*%
%TA.AperFunction,ComponentPad*%
%ADD11O,1.700000X1.700000*%
%TD*%
%TA.AperFunction,ComponentPad*%
%ADD12R,1.905000X2.000000*%
%TD*%
%TA.AperFunction,ComponentPad*%
%ADD13O,1.905000X2.000000*%
%TD*%
%TA.AperFunction,ComponentPad*%
%ADD14C,1.981200*%
%TD*%
%TA.AperFunction,ComponentPad*%
%ADD15RoundRect,0.250000X-0.950000X-0.550000X0.950000X-0.550000X0.950000X0.550000X-0.950000X0.550000X0*%
%TD*%
%TA.AperFunction,ComponentPad*%
%ADD16O,2.400000X1.600000*%
%TD*%
%TA.AperFunction,ComponentPad*%
%ADD17C,1.508000*%
%TD*%
%TA.AperFunction,ComponentPad*%
%ADD18R,1.508000X1.508000*%
%TD*%
%TA.AperFunction,ComponentPad*%
%ADD19C,1.422400*%
%TD*%
%TA.AperFunction,ComponentPad*%
%ADD20R,1.000000X1.000000*%
%TD*%
%TA.AperFunction,ComponentPad*%
%ADD21O,1.000000X1.000000*%
%TD*%
%TA.AperFunction,ViaPad*%
%ADD22C,0.600000*%
%TD*%
%TA.AperFunction,Conductor*%
%ADD23C,3.000000*%
%TD*%
%TA.AperFunction,Conductor*%
%ADD24C,0.500000*%
%TD*%
%TA.AperFunction,Conductor*%
%ADD25C,2.000000*%
%TD*%
%TA.AperFunction,Conductor*%
%ADD26C,0.800000*%
%TD*%
%TA.AperFunction,Conductor*%
%ADD27C,1.000000*%
%TD*%
G04 APERTURE END LIST*
D10*
%TO.P,J6,1,Pin_1*%
%TO.N,Net-(J6-Pin_1)*%
X100050000Y-64970000D03*
D11*
%TO.P,J6,2,Pin_2*%
%TO.N,Net-(J6-Pin_2)*%
X102590000Y-64970000D03*
%TO.P,J6,3,Pin_3*%
%TO.N,Net-(J6-Pin_3)*%
X105130000Y-64970000D03*
%TO.P,J6,4,Pin_4*%
%TO.N,Net-(J6-Pin_4)*%
X107670000Y-64970000D03*
%TO.P,J6,5,Pin_5*%
%TO.N,Net-(J6-Pin_5)*%
X110210000Y-64970000D03*
%TO.P,J6,6,Pin_6*%
%TO.N,Net-(J6-Pin_6)*%
X112750000Y-64970000D03*
%TO.P,J6,7,Pin_7*%
%TO.N,Net-(J6-Pin_7)*%
X115290000Y-64970000D03*
%TO.P,J6,8,Pin_8*%
%TO.N,Net-(J6-Pin_8)*%
X117830000Y-64970000D03*
%TD*%
D10*
%TO.P,J5,1,Pin_1*%
%TO.N,/EXT_EL_VRAW*%
X100050000Y-70670000D03*
D11*
%TO.P,J5,2,Pin_2*%
%TO.N,/EXT_AZ_CW*%
X102590000Y-70670000D03*
%TO.P,J5,3,Pin_3*%
%TO.N,/EXT_EL_UP*%
X105130000Y-70670000D03*
%TO.P,J5,4,Pin_4*%
%TO.N,/EXT_AZ_CCW*%
X107670000Y-70670000D03*
%TO.P,J5,5,Pin_5*%
%TO.N,/EXT_EL_DN*%
X110210000Y-70670000D03*
%TO.P,J5,6,Pin_6*%
%TO.N,/EXT_AZ_VRAW*%
X112750000Y-70670000D03*
%TO.P,J5,7,Pin_7*%
%TO.N,VDC*%
X115290000Y-70670000D03*
%TO.P,J5,8,Pin_8*%
%TO.N,GND*%
X117830000Y-70670000D03*
%TD*%
D12*
%TO.P,U3,1,VI*%
%TO.N,+12V*%
X110040000Y-94970000D03*
D13*
%TO.P,U3,2,GND*%
%TO.N,GND*%
X107500000Y-94970000D03*
%TO.P,U3,3,VO*%
%TO.N,Net-(U3-VO)*%
X104960000Y-94970000D03*
%TD*%
D14*
%TO.P,J2,2*%
%TO.N,Net-(J6-Pin_2)*%
X108630000Y-51150000D03*
%TO.P,J2,1*%
%TO.N,Net-(J6-Pin_1)*%
X103550000Y-51150000D03*
%TO.P,J2,3*%
%TO.N,Net-(J6-Pin_3)*%
X113710000Y-51150000D03*
%TO.P,J2,4*%
%TO.N,Net-(J6-Pin_4)*%
X106090000Y-53690000D03*
%TO.P,J2,5*%
%TO.N,Net-(J6-Pin_5)*%
X111170000Y-53690000D03*
%TO.P,J2,8*%
%TO.N,Net-(J6-Pin_8)*%
X116250000Y-53690000D03*
%TO.P,J2,6*%
%TO.N,Net-(J6-Pin_6)*%
X108630000Y-56230000D03*
%TO.P,J2,7*%
%TO.N,Net-(J6-Pin_7)*%
X101010000Y-53690000D03*
%TO.P,J2,PE@*%
%TO.N,N/C*%
X106090000Y-40990000D03*
%TO.P,J2,PE*%
X111170000Y-40990000D03*
%TD*%
D15*
%TO.P,U4,1,I1*%
%TO.N,/AZ_CW*%
X73900000Y-44300000D03*
D16*
%TO.P,U4,2,I2*%
%TO.N,/AZ_CCW*%
X73900000Y-46840000D03*
%TO.P,U4,3,I3*%
%TO.N,/EL_UP*%
X73900000Y-49380000D03*
%TO.P,U4,4,I4*%
%TO.N,/EL_DN*%
X73900000Y-51920000D03*
%TO.P,U4,5,I5*%
%TO.N,/LED_1*%
X73900000Y-54460000D03*
%TO.P,U4,6,I6*%
%TO.N,/LED_2*%
X73900000Y-57000000D03*
%TO.P,U4,7,I7*%
%TO.N,unconnected-(U4-I7-Pad7)*%
X73900000Y-59540000D03*
%TO.P,U4,8,I8*%
%TO.N,unconnected-(U4-I8-Pad8)*%
X73900000Y-62080000D03*
%TO.P,U4,9,GND*%
%TO.N,GND*%
X73900000Y-64620000D03*
%TO.P,U4,10,COM*%
%TO.N,+12V*%
X81520000Y-64620000D03*
%TO.P,U4,11,O8*%
%TO.N,unconnected-(U4-O8-Pad11)*%
X81520000Y-62080000D03*
%TO.P,U4,12,O7*%
%TO.N,unconnected-(U4-O7-Pad12)*%
X81520000Y-59540000D03*
%TO.P,U4,13,O6*%
%TO.N,Net-(J4-Pin_1)*%
X81520000Y-57000000D03*
%TO.P,U4,14,O5*%
%TO.N,Net-(J3-Pin_1)*%
X81520000Y-54460000D03*
%TO.P,U4,15,O4*%
%TO.N,/EXT_EL_DN*%
X81520000Y-51920000D03*
%TO.P,U4,16,O3*%
%TO.N,/EXT_EL_UP*%
X81520000Y-49380000D03*
%TO.P,U4,17,O2*%
%TO.N,/EXT_AZ_CCW*%
X81520000Y-46840000D03*
%TO.P,U4,18,O1*%
%TO.N,/EXT_AZ_CW*%
X81520000Y-44300000D03*
%TD*%
D17*
%TO.P,U1,21,GP16*%
%TO.N,unconnected-(U1-GP16-Pad21)*%
X61300000Y-91800000D03*
%TO.P,U1,20,GP15*%
%TO.N,unconnected-(U1-GP15-Pad20)*%
X43520000Y-91800000D03*
%TO.P,U1,22,GP17*%
%TO.N,unconnected-(U1-GP17-Pad22)*%
X61300000Y-89259970D03*
%TO.P,U1,19,GP14*%
%TO.N,unconnected-(U1-GP14-Pad19)*%
X43520000Y-89259970D03*
%TO.P,U1,23,GND*%
%TO.N,GND*%
X61300000Y-86719970D03*
%TO.P,U1,18,GND*%
X43520000Y-86719970D03*
%TO.P,U1,24,GP18*%
%TO.N,unconnected-(U1-GP18-Pad24)*%
X61300000Y-84179970D03*
%TO.P,U1,17,GP13*%
%TO.N,unconnected-(U1-GP13-Pad17)*%
X43520000Y-84179970D03*
%TO.P,U1,25,GP19*%
%TO.N,unconnected-(U1-GP19-Pad25)*%
X61300000Y-81639970D03*
%TO.P,U1,16,GP12*%
%TO.N,unconnected-(U1-GP12-Pad16)*%
X43520000Y-81639970D03*
%TO.P,U1,26,GP20*%
%TO.N,unconnected-(U1-GP20-Pad26)*%
X61300000Y-79099969D03*
%TO.P,U1,15,GP11*%
%TO.N,unconnected-(U1-GP11-Pad15)*%
X43520000Y-79099969D03*
%TO.P,U1,27,GP21*%
%TO.N,unconnected-(U1-GP21-Pad27)*%
X61300000Y-76559970D03*
%TO.P,U1,14,GP10*%
%TO.N,unconnected-(U1-GP10-Pad14)*%
X43520000Y-76559970D03*
%TO.P,U1,28,GND*%
%TO.N,GND*%
X61300000Y-74019970D03*
%TO.P,U1,13,GND*%
X43520000Y-74019970D03*
%TO.P,U1,29,GP22*%
%TO.N,unconnected-(U1-GP22-Pad29)*%
X61300000Y-71479970D03*
%TO.P,U1,12,GP9*%
%TO.N,unconnected-(U1-GP9-Pad12)*%
X43520000Y-71479970D03*
%TO.P,U1,30,~{RUN}*%
%TO.N,/nRUN*%
X61300000Y-68940000D03*
%TO.P,U1,11,GP8*%
%TO.N,unconnected-(U1-GP8-Pad11)*%
X43520000Y-68940000D03*
%TO.P,U1,31,GP26*%
%TO.N,/AZ_ADC*%
X61300000Y-66400000D03*
%TO.P,U1,10,GP7*%
%TO.N,/LED_2*%
X43520000Y-66400000D03*
%TO.P,U1,32,GP27*%
%TO.N,/EL_ADC*%
X61300000Y-63860000D03*
%TO.P,U1,9,GP6*%
%TO.N,/LED_1*%
X43520000Y-63860000D03*
%TO.P,U1,33,GND*%
%TO.N,GND*%
X61300000Y-61320000D03*
%TO.P,U1,8,GND*%
X43520000Y-61320000D03*
%TO.P,U1,34,GP28*%
%TO.N,unconnected-(U1-GP28-Pad34)*%
X61300000Y-58780000D03*
%TO.P,U1,7,GP5*%
%TO.N,/EL_DN*%
X43520000Y-58780000D03*
%TO.P,U1,35,ADC_VREF*%
%TO.N,Net-(U1-ADC_VREF)*%
X61300000Y-56240000D03*
%TO.P,U1,6,GP4*%
%TO.N,/EL_UP*%
X43520000Y-56240000D03*
%TO.P,U1,36,3V3*%
%TO.N,+3.3V*%
X61300000Y-53700000D03*
%TO.P,U1,5,GP3*%
%TO.N,/AZ_CCW*%
X43520000Y-53700000D03*
%TO.P,U1,37,3V3_EN*%
%TO.N,unconnected-(U1-3V3_EN-Pad37)*%
X61300000Y-51160000D03*
%TO.P,U1,4,GP2*%
%TO.N,/AZ_CW*%
X43520000Y-51160000D03*
%TO.P,U1,38,GND*%
%TO.N,GND*%
X61300000Y-48620000D03*
%TO.P,U1,3,GND*%
X43520000Y-48620000D03*
%TO.P,U1,39,VSYS*%
%TO.N,+5V*%
X61300000Y-46080000D03*
%TO.P,U1,2,GP1*%
%TO.N,unconnected-(U1-GP1-Pad2)*%
X43520000Y-46080000D03*
%TO.P,U1,40,VBUS*%
%TO.N,unconnected-(U1-VBUS-Pad40)*%
X61300000Y-43540000D03*
D18*
%TO.P,U1,1,GP0*%
%TO.N,unconnected-(U1-GP0-Pad1)*%
X43520000Y-43540000D03*
D19*
%TO.P,U1,41,SWCLK*%
%TO.N,/SWDCLK*%
X58910120Y-77870100D03*
%TO.P,U1,42,GND*%
%TO.N,GND*%
X58910120Y-75330100D03*
%TO.P,U1,43,SWDIO*%
%TO.N,/SWDIO*%
X58910120Y-72790100D03*
%TD*%
D10*
%TO.P,J4,1,Pin_1*%
%TO.N,Net-(J4-Pin_1)*%
X72335000Y-115300000D03*
D11*
%TO.P,J4,2,Pin_2*%
%TO.N,Net-(J4-Pin_2)*%
X74875000Y-115300000D03*
%TD*%
D10*
%TO.P,J3,1,Pin_1*%
%TO.N,Net-(J3-Pin_1)*%
X83235000Y-115600000D03*
D11*
%TO.P,J3,2,Pin_2*%
%TO.N,Net-(J3-Pin_2)*%
X85775000Y-115600000D03*
%TD*%
D10*
%TO.P,J1,1,Pin_1*%
%TO.N,/nRUN*%
X67800000Y-73735000D03*
D11*
%TO.P,J1,2,Pin_2*%
%TO.N,GND*%
X67800000Y-76275000D03*
%TD*%
D20*
%TO.P,J7,1,Pin_1*%
%TO.N,+3.3V*%
X76450000Y-102740000D03*
D21*
%TO.P,J7,2,Pin_2*%
%TO.N,/SWDIO*%
X75180000Y-102740000D03*
%TO.P,J7,3,Pin_3*%
%TO.N,GND*%
X76450000Y-101470000D03*
%TO.P,J7,4,Pin_4*%
%TO.N,/SWDCLK*%
X75180000Y-101470000D03*
%TO.P,J7,5,Pin_5*%
%TO.N,GND*%
X76450000Y-100200000D03*
%TO.P,J7,6,Pin_6*%
%TO.N,unconnected-(J7-Pin_6-Pad6)*%
X75180000Y-100200000D03*
%TO.P,J7,7,Pin_7*%
%TO.N,unconnected-(J7-Pin_7-Pad7)*%
X76450000Y-98930000D03*
%TO.P,J7,8,Pin_8*%
%TO.N,unconnected-(J7-Pin_8-Pad8)*%
X75180000Y-98930000D03*
%TO.P,J7,9,Pin_9*%
%TO.N,unconnected-(J7-Pin_9-Pad9)*%
X76450000Y-97660000D03*
%TO.P,J7,10,Pin_10*%
%TO.N,/nRUN*%
X75180000Y-97660000D03*
%TD*%
D22*
%TO.N,/nRUN*%
X68450000Y-101400000D03*
%TO.N,Net-(J3-Pin_1)*%
X76700000Y-80500000D03*
X89700000Y-89500000D03*
%TO.N,Net-(J4-Pin_1)*%
X85500000Y-84100000D03*
X85500000Y-89800000D03*
%TO.N,+12V*%
X89300000Y-81400000D03*
X89300000Y-74700000D03*
%TO.N,/EXT_EL_DN*%
X95400000Y-75800000D03*
%TO.N,/EXT_AZ_CCW*%
X96700000Y-74000000D03*
%TO.N,GND*%
X64700000Y-68200000D03*
%TO.N,VDC*%
X113575000Y-82190000D03*
%TO.N,Net-(J6-Pin_6)*%
X108630000Y-60850000D03*
%TO.N,Net-(J6-Pin_5)*%
X112750000Y-58270000D03*
%TD*%
D23*
%TO.N,*%
X106090000Y-40990000D02*
X111170000Y-40990000D01*
D24*
%TO.N,/nRUN*%
X68450000Y-101400000D02*
X68450000Y-98650000D01*
X68450000Y-98650000D02*
X69440000Y-97660000D01*
X69440000Y-97660000D02*
X75180000Y-97660000D01*
D25*
%TO.N,GND*%
X112280030Y-86719970D02*
X79400000Y-86719970D01*
D26*
X76450000Y-101470000D02*
X77830000Y-101470000D01*
X77830000Y-101470000D02*
X79400000Y-99900000D01*
X79400000Y-99900000D02*
X79400000Y-86719970D01*
D25*
X72350000Y-86719970D02*
X61300000Y-86719970D01*
D24*
%TO.N,/AZ_CW*%
X43520000Y-51160000D02*
X51890000Y-51160000D01*
X51890000Y-51160000D02*
X55750000Y-47300000D01*
X55750000Y-47300000D02*
X62600000Y-47300000D01*
X62600000Y-47300000D02*
X65600000Y-44300000D01*
X65600000Y-44300000D02*
X73900000Y-44300000D01*
D27*
%TO.N,+12V*%
X89300000Y-74700000D02*
X89300000Y-81400000D01*
%TO.N,Net-(J4-Pin_1)*%
X85500000Y-84100000D02*
X85300000Y-83900000D01*
X79100000Y-81000000D02*
X79100000Y-58500000D01*
X85300000Y-83900000D02*
X82000000Y-83900000D01*
X82000000Y-83900000D02*
X79100000Y-81000000D01*
X79100000Y-58500000D02*
X80600000Y-57000000D01*
X80600000Y-57000000D02*
X81520000Y-57000000D01*
%TO.N,Net-(J3-Pin_1)*%
X89700000Y-89500000D02*
X89700000Y-106900000D01*
X89700000Y-106900000D02*
X83235000Y-113365000D01*
X83235000Y-113365000D02*
X83235000Y-115600000D01*
%TO.N,Net-(J4-Pin_1)*%
X85500000Y-89800000D02*
X85500000Y-100200000D01*
X85500000Y-100200000D02*
X72335000Y-113365000D01*
X72335000Y-113365000D02*
X72335000Y-115300000D01*
%TO.N,Net-(J3-Pin_1)*%
X81520000Y-54460000D02*
X78940000Y-54460000D01*
X78940000Y-54460000D02*
X76700000Y-56700000D01*
X76700000Y-56700000D02*
X76700000Y-80500000D01*
D26*
%TO.N,/EXT_EL_DN*%
X110210000Y-70670000D02*
X110210000Y-72990000D01*
X110210000Y-72990000D02*
X107400000Y-75800000D01*
X107400000Y-75800000D02*
X95400000Y-75800000D01*
%TO.N,/EXT_EL_UP*%
X81520000Y-49380000D02*
X87180000Y-49380000D01*
X87180000Y-49380000D02*
X88900000Y-51100000D01*
X88900000Y-51100000D02*
X88900000Y-59500000D01*
X88900000Y-59500000D02*
X97600000Y-68200000D01*
X97600000Y-68200000D02*
X102660000Y-68200000D01*
X102660000Y-68200000D02*
X105130000Y-70670000D01*
%TO.N,/EXT_AZ_CCW*%
X96700000Y-74000000D02*
X106400000Y-74000000D01*
X106400000Y-74000000D02*
X107670000Y-72730000D01*
X107670000Y-72730000D02*
X107670000Y-70670000D01*
D27*
%TO.N,GND*%
X73900000Y-64620000D02*
X73900000Y-86519970D01*
X73900000Y-86519970D02*
X74100000Y-86719970D01*
X74100000Y-86719970D02*
X76900000Y-86719970D01*
D24*
%TO.N,/LED_1*%
X56700000Y-57500000D02*
X62600000Y-57500000D01*
X50340000Y-63860000D02*
X56700000Y-57500000D01*
%TO.N,/EL_DN*%
X62600000Y-55000000D02*
X65680000Y-51920000D01*
X52020000Y-58780000D02*
X55800000Y-55000000D01*
%TO.N,/EL_UP*%
X62600000Y-52400000D02*
X65620000Y-49380000D01*
X43520000Y-56240000D02*
X52660000Y-56240000D01*
%TO.N,/AZ_CCW*%
X65660000Y-46840000D02*
X73900000Y-46840000D01*
%TO.N,/EL_UP*%
X52660000Y-56240000D02*
X56500000Y-52400000D01*
%TO.N,/AZ_CCW*%
X52400000Y-53700000D02*
X56200000Y-49900000D01*
%TO.N,/LED_2*%
X62600000Y-60100000D02*
X65700000Y-57000000D01*
%TO.N,/EL_DN*%
X55800000Y-55000000D02*
X62600000Y-55000000D01*
X65680000Y-51920000D02*
X73900000Y-51920000D01*
%TO.N,/LED_1*%
X65640000Y-54460000D02*
X73900000Y-54460000D01*
%TO.N,/AZ_CCW*%
X62600000Y-49900000D02*
X65660000Y-46840000D01*
%TO.N,/EL_UP*%
X56500000Y-52400000D02*
X62600000Y-52400000D01*
%TO.N,/EL_DN*%
X43520000Y-58780000D02*
X52020000Y-58780000D01*
%TO.N,/LED_1*%
X43520000Y-63860000D02*
X50340000Y-63860000D01*
%TO.N,/AZ_CCW*%
X56200000Y-49900000D02*
X62600000Y-49900000D01*
%TO.N,/LED_1*%
X62600000Y-57500000D02*
X65640000Y-54460000D01*
%TO.N,/AZ_CCW*%
X43520000Y-53700000D02*
X52400000Y-53700000D01*
%TO.N,/EL_UP*%
X65620000Y-49380000D02*
X73900000Y-49380000D01*
%TO.N,/LED_2*%
X65700000Y-57000000D02*
X73900000Y-57000000D01*
X43520000Y-66400000D02*
X50900000Y-66400000D01*
X50900000Y-66400000D02*
X57200000Y-60100000D01*
X57200000Y-60100000D02*
X62600000Y-60100000D01*
D25*
%TO.N,GND*%
X79400000Y-86719970D02*
X76900000Y-86719970D01*
X117830000Y-70670000D02*
X117830000Y-81170000D01*
X117830000Y-81170000D02*
X112280030Y-86719970D01*
X76900000Y-86719970D02*
X72350000Y-86719970D01*
D26*
X64700000Y-70619970D02*
X64700000Y-68200000D01*
X61300000Y-74019970D02*
X64700000Y-70619970D01*
%TO.N,Net-(J6-Pin_3)*%
X113710000Y-51150000D02*
X111730000Y-49170000D01*
X111730000Y-49170000D02*
X101390000Y-49170000D01*
X97990000Y-52570000D02*
X97990000Y-55870000D01*
X101390000Y-49170000D02*
X97990000Y-52570000D01*
X97990000Y-55870000D02*
X105130000Y-63010000D01*
X105130000Y-63010000D02*
X105130000Y-64970000D01*
%TO.N,Net-(J6-Pin_7)*%
X115290000Y-64970000D02*
X115290000Y-63570000D01*
X115290000Y-63570000D02*
X110290000Y-58570000D01*
X104090000Y-58570000D02*
X101010000Y-55490000D01*
X110290000Y-58570000D02*
X104090000Y-58570000D01*
X101010000Y-55490000D02*
X101010000Y-53690000D01*
%TO.N,Net-(J6-Pin_6)*%
X112750000Y-64970000D02*
X112750000Y-63730000D01*
X112750000Y-63730000D02*
X109870000Y-60850000D01*
X109870000Y-60850000D02*
X108630000Y-60850000D01*
%TO.N,Net-(J6-Pin_5)*%
X112750000Y-58270000D02*
X112750000Y-55270000D01*
X112750000Y-55270000D02*
X111170000Y-53690000D01*
%TD*%
%TA.AperFunction,Conductor*%
%TO.N,GND*%
G36*
X62808059Y-41801061D02*
G01*
X62913223Y-41814906D01*
X62944491Y-41823284D01*
X63034918Y-41860740D01*
X63062952Y-41876925D01*
X63140602Y-41936509D01*
X63163491Y-41959398D01*
X63223074Y-42037048D01*
X63239259Y-42065081D01*
X63276715Y-42155508D01*
X63285093Y-42186775D01*
X63298939Y-42291939D01*
X63300000Y-42308125D01*
X63300000Y-45911534D01*
X63280315Y-45978573D01*
X63263681Y-45999215D01*
X62449716Y-46813181D01*
X62422788Y-46827884D01*
X62396970Y-46844477D01*
X62390769Y-46845368D01*
X62388393Y-46846666D01*
X62362035Y-46849500D01*
X62165791Y-46849500D01*
X62098752Y-46829815D01*
X62052997Y-46777011D01*
X62043053Y-46707853D01*
X62062689Y-46656609D01*
X62068599Y-46647763D01*
X62145867Y-46532125D01*
X62217819Y-46358417D01*
X62254500Y-46174010D01*
X62254500Y-45985990D01*
X62254500Y-45985987D01*
X62254499Y-45985985D01*
X62217820Y-45801590D01*
X62217819Y-45801583D01*
X62217817Y-45801578D01*
X62145870Y-45627881D01*
X62145863Y-45627868D01*
X62041408Y-45471542D01*
X62041405Y-45471538D01*
X61908461Y-45338594D01*
X61908457Y-45338591D01*
X61752131Y-45234136D01*
X61752118Y-45234129D01*
X61578421Y-45162182D01*
X61578409Y-45162179D01*
X61394013Y-45125500D01*
X61394010Y-45125500D01*
X61205990Y-45125500D01*
X61205987Y-45125500D01*
X61021590Y-45162179D01*
X61021578Y-45162182D01*
X60847881Y-45234129D01*
X60847868Y-45234136D01*
X60691542Y-45338591D01*
X60691538Y-45338594D01*
X60558594Y-45471538D01*
X60558591Y-45471542D01*
X60454136Y-45627868D01*
X60454129Y-45627881D01*
X60382182Y-45801578D01*
X60382179Y-45801590D01*
X60345500Y-45985985D01*
X60345500Y-46174014D01*
X60382179Y-46358409D01*
X60382182Y-46358421D01*
X60454129Y-46532118D01*
X60454136Y-46532130D01*
X60537311Y-46656609D01*
X60558189Y-46723286D01*
X60539705Y-46790666D01*
X60487726Y-46837357D01*
X60434209Y-46849500D01*
X55690691Y-46849500D01*
X55610151Y-46871080D01*
X55576109Y-46880202D01*
X55576108Y-46880203D01*
X55543019Y-46899308D01*
X55543018Y-46899309D01*
X55473386Y-46939511D01*
X55473383Y-46939513D01*
X51739716Y-50673181D01*
X51678393Y-50706666D01*
X51652035Y-50709500D01*
X44433232Y-50709500D01*
X44366193Y-50689815D01*
X44330130Y-50654391D01*
X44261408Y-50551542D01*
X44261405Y-50551538D01*
X44128461Y-50418594D01*
X44128457Y-50418591D01*
X43972131Y-50314136D01*
X43972118Y-50314129D01*
X43798421Y-50242182D01*
X43798409Y-50242179D01*
X43614013Y-50205500D01*
X43614010Y-50205500D01*
X43425990Y-50205500D01*
X43425987Y-50205500D01*
X43241590Y-50242179D01*
X43241578Y-50242182D01*
X43067881Y-50314129D01*
X43067868Y-50314136D01*
X42911542Y-50418591D01*
X42911538Y-50418594D01*
X42778594Y-50551538D01*
X42778591Y-50551542D01*
X42674136Y-50707868D01*
X42674129Y-50707881D01*
X42602182Y-50881578D01*
X42602179Y-50881590D01*
X42565500Y-51065985D01*
X42565500Y-51254014D01*
X42602179Y-51438409D01*
X42602182Y-51438421D01*
X42674129Y-51612118D01*
X42674136Y-51612131D01*
X42778591Y-51768457D01*
X42778594Y-51768461D01*
X42911538Y-51901405D01*
X42911542Y-51901408D01*
X43067868Y-52005863D01*
X43067881Y-52005870D01*
X43241578Y-52077817D01*
X43241583Y-52077819D01*
X43425985Y-52114499D01*
X43425988Y-52114500D01*
X43425990Y-52114500D01*
X43614012Y-52114500D01*
X43614013Y-52114499D01*
X43798417Y-52077819D01*
X43972125Y-52005867D01*
X44128458Y-51901408D01*
X44261408Y-51768458D01*
X44330130Y-51665609D01*
X44383742Y-51620804D01*
X44433232Y-51610500D01*
X51949308Y-51610500D01*
X51949309Y-51610500D01*
X52039673Y-51586286D01*
X52063887Y-51579799D01*
X52166614Y-51520489D01*
X55900284Y-47786819D01*
X55961607Y-47753334D01*
X55987965Y-47750500D01*
X60138336Y-47750500D01*
X60205375Y-47770185D01*
X60251130Y-47822989D01*
X60261074Y-47892147D01*
X60238653Y-47947387D01*
X60227483Y-47962759D01*
X60137873Y-48138626D01*
X60076876Y-48326353D01*
X60046000Y-48521302D01*
X60046000Y-48718697D01*
X60076876Y-48913646D01*
X60137874Y-49101375D01*
X60223389Y-49269204D01*
X60236286Y-49337874D01*
X60210010Y-49402614D01*
X60152904Y-49442872D01*
X60112905Y-49449500D01*
X56140691Y-49449500D01*
X56071944Y-49467920D01*
X56026112Y-49480201D01*
X56026107Y-49480204D01*
X55923393Y-49539505D01*
X55923385Y-49539511D01*
X52249716Y-53213181D01*
X52188393Y-53246666D01*
X52162035Y-53249500D01*
X44433232Y-53249500D01*
X44366193Y-53229815D01*
X44330130Y-53194391D01*
X44261408Y-53091542D01*
X44261405Y-53091538D01*
X44128461Y-52958594D01*
X44128457Y-52958591D01*
X43972131Y-52854136D01*
X43972118Y-52854129D01*
X43798421Y-52782182D01*
X43798409Y-52782179D01*
X43614013Y-52745500D01*
X43614010Y-52745500D01*
X43425990Y-52745500D01*
X43425987Y-52745500D01*
X43241590Y-52782179D01*
X43241578Y-52782182D01*
X43067881Y-52854129D01*
X43067868Y-52854136D01*
X42911542Y-52958591D01*
X42911538Y-52958594D01*
X42778594Y-53091538D01*
X42778591Y-53091542D01*
X42674136Y-53247868D01*
X42674129Y-53247881D01*
X42602182Y-53421578D01*
X42602179Y-53421590D01*
X42565500Y-53605985D01*
X42565500Y-53794014D01*
X42602179Y-53978409D01*
X42602182Y-53978421D01*
X42674129Y-54152118D01*
X42674136Y-54152131D01*
X42778591Y-54308457D01*
X42778594Y-54308461D01*
X42911538Y-54441405D01*
X42911542Y-54441408D01*
X43067868Y-54545863D01*
X43067881Y-54545870D01*
X43241578Y-54617817D01*
X43241583Y-54617819D01*
X43350636Y-54639511D01*
X43425985Y-54654499D01*
X43425988Y-54654500D01*
X43425990Y-54654500D01*
X43614012Y-54654500D01*
X43614013Y-54654499D01*
X43798417Y-54617819D01*
X43972125Y-54545867D01*
X44128458Y-54441408D01*
X44261408Y-54308458D01*
X44330130Y-54205609D01*
X44383742Y-54160804D01*
X44433232Y-54150500D01*
X52459308Y-54150500D01*
X52459309Y-54150500D01*
X52549673Y-54126286D01*
X52573887Y-54119799D01*
X52676614Y-54060489D01*
X56350284Y-50386819D01*
X56411607Y-50353334D01*
X56437965Y-50350500D01*
X60461407Y-50350500D01*
X60528446Y-50370185D01*
X60574201Y-50422989D01*
X60584145Y-50492147D01*
X60560607Y-50545562D01*
X60561976Y-50546477D01*
X60454136Y-50707868D01*
X60454129Y-50707881D01*
X60382182Y-50881578D01*
X60382179Y-50881590D01*
X60345500Y-51065985D01*
X60345500Y-51254014D01*
X60382179Y-51438409D01*
X60382182Y-51438421D01*
X60454129Y-51612118D01*
X60454136Y-51612131D01*
X60550674Y-51756609D01*
X60571552Y-51823286D01*
X60553068Y-51890667D01*
X60501089Y-51937357D01*
X60447572Y-51949500D01*
X56440691Y-51949500D01*
X56350325Y-51973713D01*
X56350324Y-51973712D01*
X56326116Y-51980199D01*
X56326113Y-51980200D01*
X56223386Y-52039511D01*
X56223383Y-52039513D01*
X52509716Y-55753181D01*
X52448393Y-55786666D01*
X52422035Y-55789500D01*
X44433232Y-55789500D01*
X44366193Y-55769815D01*
X44330130Y-55734391D01*
X44261408Y-55631542D01*
X44261405Y-55631538D01*
X44128461Y-55498594D01*
X44128457Y-55498591D01*
X43972131Y-55394136D01*
X43972118Y-55394129D01*
X43798421Y-55322182D01*
X43798409Y-55322179D01*
X43614013Y-55285500D01*
X43614010Y-55285500D01*
X43425990Y-55285500D01*
X43425987Y-55285500D01*
X43241590Y-55322179D01*
X43241578Y-55322182D01*
X43067881Y-55394129D01*
X43067868Y-55394136D01*
X42911542Y-55498591D01*
X42911538Y-55498594D01*
X42778594Y-55631538D01*
X42778591Y-55631542D01*
X42674136Y-55787868D01*
X42674129Y-55787881D01*
X42602182Y-55961578D01*
X42602179Y-55961590D01*
X42565500Y-56145985D01*
X42565500Y-56334014D01*
X42602179Y-56518409D01*
X42602182Y-56518421D01*
X42674129Y-56692118D01*
X42674136Y-56692131D01*
X42778591Y-56848457D01*
X42778594Y-56848461D01*
X42911538Y-56981405D01*
X42911542Y-56981408D01*
X43067868Y-57085863D01*
X43067881Y-57085870D01*
X43197383Y-57139511D01*
X43241583Y-57157819D01*
X43425985Y-57194499D01*
X43425988Y-57194500D01*
X43425990Y-57194500D01*
X43614012Y-57194500D01*
X43614013Y-57194499D01*
X43798417Y-57157819D01*
X43972125Y-57085867D01*
X44128458Y-56981408D01*
X44261408Y-56848458D01*
X44330130Y-56745609D01*
X44383742Y-56700804D01*
X44433232Y-56690500D01*
X52719308Y-56690500D01*
X52719309Y-56690500D01*
X52809673Y-56666286D01*
X52833887Y-56659799D01*
X52936614Y-56600489D01*
X56650284Y-52886819D01*
X56711607Y-52853334D01*
X56737965Y-52850500D01*
X60500271Y-52850500D01*
X60567310Y-52870185D01*
X60613065Y-52922989D01*
X60623009Y-52992147D01*
X60593984Y-53055703D01*
X60587952Y-53062181D01*
X60558594Y-53091538D01*
X60558591Y-53091542D01*
X60454136Y-53247868D01*
X60454129Y-53247881D01*
X60382182Y-53421578D01*
X60382179Y-53421590D01*
X60345500Y-53605985D01*
X60345500Y-53794014D01*
X60382179Y-53978409D01*
X60382182Y-53978421D01*
X60454129Y-54152118D01*
X60454136Y-54152131D01*
X60558591Y-54308457D01*
X60558594Y-54308461D01*
X60587952Y-54337819D01*
X60621437Y-54399142D01*
X60616453Y-54468834D01*
X60574581Y-54524767D01*
X60509117Y-54549184D01*
X60500271Y-54549500D01*
X55740691Y-54549500D01*
X55650325Y-54573713D01*
X55650324Y-54573712D01*
X55626116Y-54580199D01*
X55626113Y-54580200D01*
X55523386Y-54639511D01*
X55523383Y-54639513D01*
X51869716Y-58293181D01*
X51808393Y-58326666D01*
X51782035Y-58329500D01*
X44433232Y-58329500D01*
X44366193Y-58309815D01*
X44330130Y-58274391D01*
X44261408Y-58171542D01*
X44261405Y-58171538D01*
X44128461Y-58038594D01*
X44128457Y-58038591D01*
X43972131Y-57934136D01*
X43972118Y-57934129D01*
X43798421Y-57862182D01*
X43798409Y-57862179D01*
X43614013Y-57825500D01*
X43614010Y-57825500D01*
X43425990Y-57825500D01*
X43425987Y-57825500D01*
X43241590Y-57862179D01*
X43241578Y-57862182D01*
X43067881Y-57934129D01*
X43067868Y-57934136D01*
X42911542Y-58038591D01*
X42911538Y-58038594D01*
X42778594Y-58171538D01*
X42778591Y-58171542D01*
X42674136Y-58327868D01*
X42674129Y-58327881D01*
X42602182Y-58501578D01*
X42602179Y-58501590D01*
X42565500Y-58685985D01*
X42565500Y-58874014D01*
X42602179Y-59058409D01*
X42602182Y-59058421D01*
X42674129Y-59232118D01*
X42674136Y-59232131D01*
X42778591Y-59388457D01*
X42778594Y-59388461D01*
X42911538Y-59521405D01*
X42911542Y-59521408D01*
X43067868Y-59625863D01*
X43067881Y-59625870D01*
X43241578Y-59697817D01*
X43241583Y-59697819D01*
X43425985Y-59734499D01*
X43425988Y-59734500D01*
X43425990Y-59734500D01*
X43614012Y-59734500D01*
X43614013Y-59734499D01*
X43798417Y-59697819D01*
X43972125Y-59625867D01*
X44128458Y-59521408D01*
X44261408Y-59388458D01*
X44330130Y-59285609D01*
X44383742Y-59240804D01*
X44433232Y-59230500D01*
X52079308Y-59230500D01*
X52079309Y-59230500D01*
X52169673Y-59206286D01*
X52193887Y-59199799D01*
X52296614Y-59140489D01*
X55950284Y-55486819D01*
X56011607Y-55453334D01*
X56037965Y-55450500D01*
X60447572Y-55450500D01*
X60514611Y-55470185D01*
X60560366Y-55522989D01*
X60570310Y-55592147D01*
X60550674Y-55643391D01*
X60454136Y-55787868D01*
X60454129Y-55787881D01*
X60382182Y-55961578D01*
X60382179Y-55961590D01*
X60345500Y-56145985D01*
X60345500Y-56334014D01*
X60382179Y-56518409D01*
X60382182Y-56518421D01*
X60454129Y-56692118D01*
X60454136Y-56692131D01*
X60561976Y-56853523D01*
X60560513Y-56854500D01*
X60584572Y-56911136D01*
X60572786Y-56980004D01*
X60525638Y-57031568D01*
X60461407Y-57049500D01*
X56640691Y-57049500D01*
X56550325Y-57073713D01*
X56550324Y-57073712D01*
X56526116Y-57080199D01*
X56526113Y-57080200D01*
X56423386Y-57139511D01*
X56423383Y-57139513D01*
X50189716Y-63373181D01*
X50128393Y-63406666D01*
X50102035Y-63409500D01*
X44433232Y-63409500D01*
X44366193Y-63389815D01*
X44330130Y-63354391D01*
X44261408Y-63251542D01*
X44261405Y-63251538D01*
X44128461Y-63118594D01*
X44128457Y-63118591D01*
X43972131Y-63014136D01*
X43972118Y-63014129D01*
X43798421Y-62942182D01*
X43798409Y-62942179D01*
X43614013Y-62905500D01*
X43614010Y-62905500D01*
X43425990Y-62905500D01*
X43425987Y-62905500D01*
X43241590Y-62942179D01*
X43241578Y-62942182D01*
X43067881Y-63014129D01*
X43067868Y-63014136D01*
X42911542Y-63118591D01*
X42911538Y-63118594D01*
X42778594Y-63251538D01*
X42778591Y-63251542D01*
X42674136Y-63407868D01*
X42674129Y-63407881D01*
X42602182Y-63581578D01*
X42602179Y-63581590D01*
X42565500Y-63765985D01*
X42565500Y-63954014D01*
X42602179Y-64138409D01*
X42602182Y-64138421D01*
X42674129Y-64312118D01*
X42674136Y-64312131D01*
X42778591Y-64468457D01*
X42778594Y-64468461D01*
X42911538Y-64601405D01*
X42911542Y-64601408D01*
X43067868Y-64705863D01*
X43067881Y-64705870D01*
X43241578Y-64777817D01*
X43241583Y-64777819D01*
X43425985Y-64814499D01*
X43425988Y-64814500D01*
X43425990Y-64814500D01*
X43614012Y-64814500D01*
X43614013Y-64814499D01*
X43798417Y-64777819D01*
X43972125Y-64705867D01*
X44128458Y-64601408D01*
X44261408Y-64468458D01*
X44330130Y-64365609D01*
X44383742Y-64320804D01*
X44433232Y-64310500D01*
X50399308Y-64310500D01*
X50399309Y-64310500D01*
X50489673Y-64286286D01*
X50513887Y-64279799D01*
X50616614Y-64220489D01*
X56850284Y-57986819D01*
X56911607Y-57953334D01*
X56937965Y-57950500D01*
X60480271Y-57950500D01*
X60547310Y-57970185D01*
X60593065Y-58022989D01*
X60603009Y-58092147D01*
X60573984Y-58155703D01*
X60567952Y-58162181D01*
X60558594Y-58171538D01*
X60558591Y-58171542D01*
X60454136Y-58327868D01*
X60454129Y-58327881D01*
X60382182Y-58501578D01*
X60382179Y-58501590D01*
X60345500Y-58685985D01*
X60345500Y-58874014D01*
X60382179Y-59058409D01*
X60382182Y-59058421D01*
X60454129Y-59232118D01*
X60454136Y-59232131D01*
X60558591Y-59388457D01*
X60558594Y-59388461D01*
X60607952Y-59437819D01*
X60641437Y-59499142D01*
X60636453Y-59568834D01*
X60594581Y-59624767D01*
X60529117Y-59649184D01*
X60520271Y-59649500D01*
X57140691Y-59649500D01*
X57026114Y-59680201D01*
X57026113Y-59680201D01*
X57026111Y-59680202D01*
X57000923Y-59694744D01*
X56995603Y-59697817D01*
X56995601Y-59697818D01*
X56995598Y-59697819D01*
X56923392Y-59739506D01*
X56923384Y-59739512D01*
X50749716Y-65913181D01*
X50688393Y-65946666D01*
X50662035Y-65949500D01*
X44433232Y-65949500D01*
X44366193Y-65929815D01*
X44330130Y-65894391D01*
X44261408Y-65791542D01*
X44261405Y-65791538D01*
X44128461Y-65658594D01*
X44128457Y-65658591D01*
X43972131Y-65554136D01*
X43972118Y-65554129D01*
X43798421Y-65482182D01*
X43798409Y-65482179D01*
X43614013Y-65445500D01*
X43614010Y-65445500D01*
X43425990Y-65445500D01*
X43425987Y-65445500D01*
X43241590Y-65482179D01*
X43241578Y-65482182D01*
X43067881Y-65554129D01*
X43067868Y-65554136D01*
X42911542Y-65658591D01*
X42911538Y-65658594D01*
X42778594Y-65791538D01*
X42778591Y-65791542D01*
X42674136Y-65947868D01*
X42674129Y-65947881D01*
X42602182Y-66121578D01*
X42602179Y-66121590D01*
X42565500Y-66305985D01*
X42565500Y-66494014D01*
X42602179Y-66678409D01*
X42602182Y-66678421D01*
X42674129Y-66852118D01*
X42674136Y-66852131D01*
X42778591Y-67008457D01*
X42778594Y-67008461D01*
X42911538Y-67141405D01*
X42911542Y-67141408D01*
X43067868Y-67245863D01*
X43067881Y-67245870D01*
X43241578Y-67317817D01*
X43241583Y-67317819D01*
X43425985Y-67354499D01*
X43425988Y-67354500D01*
X43425990Y-67354500D01*
X43614012Y-67354500D01*
X43614013Y-67354499D01*
X43798417Y-67317819D01*
X43972125Y-67245867D01*
X44128458Y-67141408D01*
X44261408Y-67008458D01*
X44330130Y-66905609D01*
X44383742Y-66860804D01*
X44433232Y-66850500D01*
X50959308Y-66850500D01*
X50959309Y-66850500D01*
X51049673Y-66826286D01*
X51073887Y-66819799D01*
X51176614Y-66760489D01*
X51631118Y-66305985D01*
X60345500Y-66305985D01*
X60345500Y-66494014D01*
X60382179Y-66678409D01*
X60382182Y-66678421D01*
X60454129Y-66852118D01*
X60454136Y-66852131D01*
X60558591Y-67008457D01*
X60558594Y-67008461D01*
X60691538Y-67141405D01*
X60691542Y-67141408D01*
X60847868Y-67245863D01*
X60847881Y-67245870D01*
X61021578Y-67317817D01*
X61021583Y-67317819D01*
X61205985Y-67354499D01*
X61205988Y-67354500D01*
X61205990Y-67354500D01*
X61394012Y-67354500D01*
X61394013Y-67354499D01*
X61578417Y-67317819D01*
X61752125Y-67245867D01*
X61908458Y-67141408D01*
X62041408Y-67008458D01*
X62145867Y-66852125D01*
X62217819Y-66678417D01*
X62254500Y-66494010D01*
X62254500Y-66305990D01*
X62254500Y-66305987D01*
X62254499Y-66305985D01*
X62217820Y-66121590D01*
X62217819Y-66121583D01*
X62217817Y-66121578D01*
X62145870Y-65947881D01*
X62145863Y-65947868D01*
X62041408Y-65791542D01*
X62041405Y-65791538D01*
X61908461Y-65658594D01*
X61908457Y-65658591D01*
X61752131Y-65554136D01*
X61752118Y-65554129D01*
X61578421Y-65482182D01*
X61578409Y-65482179D01*
X61394013Y-65445500D01*
X61394010Y-65445500D01*
X61205990Y-65445500D01*
X61205987Y-65445500D01*
X61021590Y-65482179D01*
X61021578Y-65482182D01*
X60847881Y-65554129D01*
X60847868Y-65554136D01*
X60691542Y-65658591D01*
X60691538Y-65658594D01*
X60558594Y-65791538D01*
X60558591Y-65791542D01*
X60454136Y-65947868D01*
X60454129Y-65947881D01*
X60382182Y-66121578D01*
X60382179Y-66121590D01*
X60345500Y-66305985D01*
X51631118Y-66305985D01*
X54171118Y-63765985D01*
X60345500Y-63765985D01*
X60345500Y-63954014D01*
X60382179Y-64138409D01*
X60382182Y-64138421D01*
X60454129Y-64312118D01*
X60454136Y-64312131D01*
X60558591Y-64468457D01*
X60558594Y-64468461D01*
X60691538Y-64601405D01*
X60691542Y-64601408D01*
X60847868Y-64705863D01*
X60847881Y-64705870D01*
X61021578Y-64777817D01*
X61021583Y-64777819D01*
X61205985Y-64814499D01*
X61205988Y-64814500D01*
X61205990Y-64814500D01*
X61394012Y-64814500D01*
X61394013Y-64814499D01*
X61578417Y-64777819D01*
X61752125Y-64705867D01*
X61908458Y-64601408D01*
X62041408Y-64468458D01*
X62145867Y-64312125D01*
X62217819Y-64138417D01*
X62254500Y-63954010D01*
X62254500Y-63765990D01*
X62254500Y-63765987D01*
X62254499Y-63765985D01*
X62217820Y-63581590D01*
X62217819Y-63581583D01*
X62217817Y-63581578D01*
X62145870Y-63407881D01*
X62145863Y-63407868D01*
X62041408Y-63251542D01*
X62041405Y-63251538D01*
X61908461Y-63118594D01*
X61908457Y-63118591D01*
X61752131Y-63014136D01*
X61752118Y-63014129D01*
X61578421Y-62942182D01*
X61578409Y-62942179D01*
X61394013Y-62905500D01*
X61394010Y-62905500D01*
X61205990Y-62905500D01*
X61205987Y-62905500D01*
X61021590Y-62942179D01*
X61021578Y-62942182D01*
X60847881Y-63014129D01*
X60847868Y-63014136D01*
X60691542Y-63118591D01*
X60691538Y-63118594D01*
X60558594Y-63251538D01*
X60558591Y-63251542D01*
X60454136Y-63407868D01*
X60454129Y-63407881D01*
X60382182Y-63581578D01*
X60382179Y-63581590D01*
X60345500Y-63765985D01*
X54171118Y-63765985D01*
X57350284Y-60586819D01*
X57411607Y-60553334D01*
X57437965Y-60550500D01*
X60082333Y-60550500D01*
X60149372Y-60570185D01*
X60195127Y-60622989D01*
X60205071Y-60692147D01*
X60192817Y-60730796D01*
X60137874Y-60838624D01*
X60076876Y-61026353D01*
X60046000Y-61221302D01*
X60046000Y-61418697D01*
X60076876Y-61613646D01*
X60137873Y-61801373D01*
X60227483Y-61977239D01*
X60253457Y-62012988D01*
X60253457Y-62012989D01*
X60817037Y-61449408D01*
X60834075Y-61512993D01*
X60899901Y-61627007D01*
X60992993Y-61720099D01*
X61107007Y-61785925D01*
X61170590Y-61802962D01*
X60607009Y-62366541D01*
X60607010Y-62366542D01*
X60642755Y-62392512D01*
X60642768Y-62392520D01*
X60818626Y-62482126D01*
X61006353Y-62543123D01*
X61201303Y-62574000D01*
X61398697Y-62574000D01*
X61593646Y-62543123D01*
X61781373Y-62482126D01*
X61957241Y-62392516D01*
X61992988Y-62366543D01*
X61992988Y-62366541D01*
X61429410Y-61802962D01*
X61492993Y-61785925D01*
X61607007Y-61720099D01*
X61700099Y-61627007D01*
X61765925Y-61512993D01*
X61782962Y-61449409D01*
X62346541Y-62012988D01*
X62346543Y-62012988D01*
X62372516Y-61977241D01*
X62462126Y-61801373D01*
X62523123Y-61613646D01*
X62554000Y-61418697D01*
X62554000Y-61221302D01*
X62523123Y-61026353D01*
X62462125Y-60838624D01*
X62407183Y-60730796D01*
X62394286Y-60662126D01*
X62420562Y-60597386D01*
X62477668Y-60557128D01*
X62517667Y-60550500D01*
X62659308Y-60550500D01*
X62659309Y-60550500D01*
X62749673Y-60526286D01*
X62773887Y-60519799D01*
X62876614Y-60460489D01*
X63088319Y-60248784D01*
X63149642Y-60215299D01*
X63219334Y-60220283D01*
X63275267Y-60262155D01*
X63299684Y-60327619D01*
X63300000Y-60336465D01*
X63300000Y-117091874D01*
X63298939Y-117108059D01*
X63298939Y-117108060D01*
X63285093Y-117213224D01*
X63276715Y-117244491D01*
X63239259Y-117334918D01*
X63223074Y-117362951D01*
X63163491Y-117440601D01*
X63140601Y-117463491D01*
X63062951Y-117523074D01*
X63034918Y-117539259D01*
X62944491Y-117576715D01*
X62913224Y-117585093D01*
X62819398Y-117597446D01*
X62808058Y-117598939D01*
X62791874Y-117600000D01*
X42008126Y-117600000D01*
X41991941Y-117598939D01*
X41978917Y-117597224D01*
X41886775Y-117585093D01*
X41855508Y-117576715D01*
X41765081Y-117539259D01*
X41737048Y-117523074D01*
X41659398Y-117463491D01*
X41636508Y-117440601D01*
X41576925Y-117362951D01*
X41560740Y-117334918D01*
X41523284Y-117244491D01*
X41514906Y-117213223D01*
X41501061Y-117108059D01*
X41500000Y-117091874D01*
X41500000Y-91705985D01*
X42565500Y-91705985D01*
X42565500Y-91894014D01*
X42602179Y-92078409D01*
X42602182Y-92078421D01*
X42674129Y-92252118D01*
X42674136Y-92252131D01*
X42778591Y-92408457D01*
X42778594Y-92408461D01*
X42911538Y-92541405D01*
X42911542Y-92541408D01*
X43067868Y-92645863D01*
X43067881Y-92645870D01*
X43241578Y-92717817D01*
X43241583Y-92717819D01*
X43425985Y-92754499D01*
X43425988Y-92754500D01*
X43425990Y-92754500D01*
X43614012Y-92754500D01*
X43614013Y-92754499D01*
X43798417Y-92717819D01*
X43972125Y-92645867D01*
X44128458Y-92541408D01*
X44261408Y-92408458D01*
X44365867Y-92252125D01*
X44437819Y-92078417D01*
X44474500Y-91894010D01*
X44474500Y-91705990D01*
X44474500Y-91705987D01*
X44474499Y-91705985D01*
X60345500Y-91705985D01*
X60345500Y-91894014D01*
X60382179Y-92078409D01*
X60382182Y-92078421D01*
X60454129Y-92252118D01*
X60454136Y-92252131D01*
X60558591Y-92408457D01*
X60558594Y-92408461D01*
X60691538Y-92541405D01*
X60691542Y-92541408D01*
X60847868Y-92645863D01*
X60847881Y-92645870D01*
X61021578Y-92717817D01*
X61021583Y-92717819D01*
X61205985Y-92754499D01*
X61205988Y-92754500D01*
X61205990Y-92754500D01*
X61394012Y-92754500D01*
X61394013Y-92754499D01*
X61578417Y-92717819D01*
X61752125Y-92645867D01*
X61908458Y-92541408D01*
X62041408Y-92408458D01*
X62145867Y-92252125D01*
X62217819Y-92078417D01*
X62254500Y-91894010D01*
X62254500Y-91705990D01*
X62254500Y-91705987D01*
X62254499Y-91705985D01*
X62217820Y-91521590D01*
X62217819Y-91521583D01*
X62217817Y-91521578D01*
X62145870Y-91347881D01*
X62145863Y-91347868D01*
X62041408Y-91191542D01*
X62041405Y-91191538D01*
X61908461Y-91058594D01*
X61908457Y-91058591D01*
X61752131Y-90954136D01*
X61752118Y-90954129D01*
X61578421Y-90882182D01*
X61578409Y-90882179D01*
X61394013Y-90845500D01*
X61394010Y-90845500D01*
X61205990Y-90845500D01*
X61205987Y-90845500D01*
X61021590Y-90882179D01*
X61021578Y-90882182D01*
X60847881Y-90954129D01*
X60847868Y-90954136D01*
X60691542Y-91058591D01*
X60691538Y-91058594D01*
X60558594Y-91191538D01*
X60558591Y-91191542D01*
X60454136Y-91347868D01*
X60454129Y-91347881D01*
X60382182Y-91521578D01*
X60382179Y-91521590D01*
X60345500Y-91705985D01*
X44474499Y-91705985D01*
X44437820Y-91521590D01*
X44437819Y-91521583D01*
X44437817Y-91521578D01*
X44365870Y-91347881D01*
X44365863Y-91347868D01*
X44261408Y-91191542D01*
X44261405Y-91191538D01*
X44128461Y-91058594D01*
X44128457Y-91058591D01*
X43972131Y-90954136D01*
X43972118Y-90954129D01*
X43798421Y-90882182D01*
X43798409Y-90882179D01*
X43614013Y-90845500D01*
X43614010Y-90845500D01*
X43425990Y-90845500D01*
X43425987Y-90845500D01*
X43241590Y-90882179D01*
X43241578Y-90882182D01*
X43067881Y-90954129D01*
X43067868Y-90954136D01*
X42911542Y-91058591D01*
X42911538Y-91058594D01*
X42778594Y-91191538D01*
X42778591Y-91191542D01*
X42674136Y-91347868D01*
X42674129Y-91347881D01*
X42602182Y-91521578D01*
X42602179Y-91521590D01*
X42565500Y-91705985D01*
X41500000Y-91705985D01*
X41500000Y-89165955D01*
X42565500Y-89165955D01*
X42565500Y-89353984D01*
X42602179Y-89538379D01*
X42602182Y-89538391D01*
X42674129Y-89712088D01*
X42674136Y-89712101D01*
X42778591Y-89868427D01*
X42778594Y-89868431D01*
X42911538Y-90001375D01*
X42911542Y-90001378D01*
X43067868Y-90105833D01*
X43067881Y-90105840D01*
X43241578Y-90177787D01*
X43241583Y-90177789D01*
X43425985Y-90214469D01*
X43425988Y-90214470D01*
X43425990Y-90214470D01*
X43614012Y-90214470D01*
X43614013Y-90214469D01*
X43798417Y-90177789D01*
X43972125Y-90105837D01*
X44128458Y-90001378D01*
X44261408Y-89868428D01*
X44365867Y-89712095D01*
X44437819Y-89538387D01*
X44474500Y-89353980D01*
X44474500Y-89165960D01*
X44474500Y-89165957D01*
X44474499Y-89165955D01*
X60345500Y-89165955D01*
X60345500Y-89353984D01*
X60382179Y-89538379D01*
X60382182Y-89538391D01*
X60454129Y-89712088D01*
X60454136Y-89712101D01*
X60558591Y-89868427D01*
X60558594Y-89868431D01*
X60691538Y-90001375D01*
X60691542Y-90001378D01*
X60847868Y-90105833D01*
X60847881Y-90105840D01*
X61021578Y-90177787D01*
X61021583Y-90177789D01*
X61205985Y-90214469D01*
X61205988Y-90214470D01*
X61205990Y-90214470D01*
X61394012Y-90214470D01*
X61394013Y-90214469D01*
X61578417Y-90177789D01*
X61752125Y-90105837D01*
X61908458Y-90001378D01*
X62041408Y-89868428D01*
X62145867Y-89712095D01*
X62217819Y-89538387D01*
X62254500Y-89353980D01*
X62254500Y-89165960D01*
X62254500Y-89165957D01*
X62254499Y-89165955D01*
X62217820Y-88981560D01*
X62217819Y-88981553D01*
X62217817Y-88981548D01*
X62145870Y-88807851D01*
X62145863Y-88807838D01*
X62041408Y-88651512D01*
X62041405Y-88651508D01*
X61908461Y-88518564D01*
X61908457Y-88518561D01*
X61752131Y-88414106D01*
X61752118Y-88414099D01*
X61578421Y-88342152D01*
X61578409Y-88342149D01*
X61394013Y-88305470D01*
X61394010Y-88305470D01*
X61205990Y-88305470D01*
X61205987Y-88305470D01*
X61021590Y-88342149D01*
X61021578Y-88342152D01*
X60847881Y-88414099D01*
X60847868Y-88414106D01*
X60691542Y-88518561D01*
X60691538Y-88518564D01*
X60558594Y-88651508D01*
X60558591Y-88651512D01*
X60454136Y-88807838D01*
X60454129Y-88807851D01*
X60382182Y-88981548D01*
X60382179Y-88981560D01*
X60345500Y-89165955D01*
X44474499Y-89165955D01*
X44437820Y-88981560D01*
X44437819Y-88981553D01*
X44437817Y-88981548D01*
X44365870Y-88807851D01*
X44365863Y-88807838D01*
X44261408Y-88651512D01*
X44261405Y-88651508D01*
X44128461Y-88518564D01*
X44128457Y-88518561D01*
X43972131Y-88414106D01*
X43972118Y-88414099D01*
X43798421Y-88342152D01*
X43798409Y-88342149D01*
X43614013Y-88305470D01*
X43614010Y-88305470D01*
X43425990Y-88305470D01*
X43425987Y-88305470D01*
X43241590Y-88342149D01*
X43241578Y-88342152D01*
X43067881Y-88414099D01*
X43067868Y-88414106D01*
X42911542Y-88518561D01*
X42911538Y-88518564D01*
X42778594Y-88651508D01*
X42778591Y-88651512D01*
X42674136Y-88807838D01*
X42674129Y-88807851D01*
X42602182Y-88981548D01*
X42602179Y-88981560D01*
X42565500Y-89165955D01*
X41500000Y-89165955D01*
X41500000Y-86621272D01*
X42266000Y-86621272D01*
X42266000Y-86818667D01*
X42296876Y-87013616D01*
X42357873Y-87201343D01*
X42447483Y-87377209D01*
X42473457Y-87412958D01*
X42473457Y-87412959D01*
X43037037Y-86849379D01*
X43054075Y-86912963D01*
X43119901Y-87026977D01*
X43212993Y-87120069D01*
X43327007Y-87185895D01*
X43390590Y-87202932D01*
X42827009Y-87766511D01*
X42827010Y-87766512D01*
X42862755Y-87792482D01*
X42862768Y-87792490D01*
X43038626Y-87882096D01*
X43226353Y-87943093D01*
X43421303Y-87973970D01*
X43618697Y-87973970D01*
X43813646Y-87943093D01*
X44001373Y-87882096D01*
X44177241Y-87792486D01*
X44212988Y-87766513D01*
X44212988Y-87766511D01*
X43649410Y-87202932D01*
X43712993Y-87185895D01*
X43827007Y-87120069D01*
X43920099Y-87026977D01*
X43985925Y-86912963D01*
X44002962Y-86849379D01*
X44566541Y-87412958D01*
X44566543Y-87412958D01*
X44592516Y-87377211D01*
X44682126Y-87201343D01*
X44743123Y-87013616D01*
X44774000Y-86818667D01*
X44774000Y-86621272D01*
X60046000Y-86621272D01*
X60046000Y-86818667D01*
X60076876Y-87013616D01*
X60137873Y-87201343D01*
X60227483Y-87377209D01*
X60253457Y-87412958D01*
X60253457Y-87412959D01*
X60817037Y-86849379D01*
X60834075Y-86912963D01*
X60899901Y-87026977D01*
X60992993Y-87120069D01*
X61107007Y-87185895D01*
X61170590Y-87202932D01*
X60607009Y-87766511D01*
X60607010Y-87766512D01*
X60642755Y-87792482D01*
X60642768Y-87792490D01*
X60818626Y-87882096D01*
X61006353Y-87943093D01*
X61201303Y-87973970D01*
X61398697Y-87973970D01*
X61593646Y-87943093D01*
X61781373Y-87882096D01*
X61957241Y-87792486D01*
X61992988Y-87766513D01*
X61992988Y-87766511D01*
X61429410Y-87202932D01*
X61492993Y-87185895D01*
X61607007Y-87120069D01*
X61700099Y-87026977D01*
X61765925Y-86912963D01*
X61782962Y-86849379D01*
X62346541Y-87412958D01*
X62346543Y-87412958D01*
X62372516Y-87377211D01*
X62462126Y-87201343D01*
X62523123Y-87013616D01*
X62554000Y-86818667D01*
X62554000Y-86621272D01*
X62523123Y-86426323D01*
X62462126Y-86238596D01*
X62372520Y-86062738D01*
X62372512Y-86062725D01*
X62346542Y-86026980D01*
X62346541Y-86026979D01*
X61782962Y-86590559D01*
X61765925Y-86526977D01*
X61700099Y-86412963D01*
X61607007Y-86319871D01*
X61492993Y-86254045D01*
X61429409Y-86237007D01*
X61992989Y-85673427D01*
X61957239Y-85647453D01*
X61781373Y-85557843D01*
X61593646Y-85496846D01*
X61398697Y-85465970D01*
X61201303Y-85465970D01*
X61006353Y-85496846D01*
X60818626Y-85557843D01*
X60642762Y-85647452D01*
X60642760Y-85647453D01*
X60607010Y-85673426D01*
X60607010Y-85673427D01*
X61170591Y-86237007D01*
X61107007Y-86254045D01*
X60992993Y-86319871D01*
X60899901Y-86412963D01*
X60834075Y-86526977D01*
X60817037Y-86590560D01*
X60253457Y-86026980D01*
X60253456Y-86026980D01*
X60227483Y-86062730D01*
X60227482Y-86062732D01*
X60137873Y-86238596D01*
X60076876Y-86426323D01*
X60046000Y-86621272D01*
X44774000Y-86621272D01*
X44743123Y-86426323D01*
X44682126Y-86238596D01*
X44592520Y-86062738D01*
X44592512Y-86062725D01*
X44566542Y-86026980D01*
X44566541Y-86026979D01*
X44002962Y-86590559D01*
X43985925Y-86526977D01*
X43920099Y-86412963D01*
X43827007Y-86319871D01*
X43712993Y-86254045D01*
X43649409Y-86237007D01*
X44212989Y-85673427D01*
X44177239Y-85647453D01*
X44001373Y-85557843D01*
X43813646Y-85496846D01*
X43618697Y-85465970D01*
X43421303Y-85465970D01*
X43226353Y-85496846D01*
X43038626Y-85557843D01*
X42862762Y-85647452D01*
X42862760Y-85647453D01*
X42827010Y-85673426D01*
X42827010Y-85673427D01*
X43390591Y-86237007D01*
X43327007Y-86254045D01*
X43212993Y-86319871D01*
X43119901Y-86412963D01*
X43054075Y-86526977D01*
X43037037Y-86590560D01*
X42473457Y-86026980D01*
X42473456Y-86026980D01*
X42447483Y-86062730D01*
X42447482Y-86062732D01*
X42357873Y-86238596D01*
X42296876Y-86426323D01*
X42266000Y-86621272D01*
X41500000Y-86621272D01*
X41500000Y-84085955D01*
X42565500Y-84085955D01*
X42565500Y-84273984D01*
X42602179Y-84458379D01*
X42602182Y-84458391D01*
X42674129Y-84632088D01*
X42674136Y-84632101D01*
X42778591Y-84788427D01*
X42778594Y-84788431D01*
X42911538Y-84921375D01*
X42911542Y-84921378D01*
X43067868Y-85025833D01*
X43067881Y-85025840D01*
X43241578Y-85097787D01*
X43241583Y-85097789D01*
X43425985Y-85134469D01*
X43425988Y-85134470D01*
X43425990Y-85134470D01*
X43614012Y-85134470D01*
X43614013Y-85134469D01*
X43798417Y-85097789D01*
X43972125Y-85025837D01*
X44128458Y-84921378D01*
X44261408Y-84788428D01*
X44365867Y-84632095D01*
X44437819Y-84458387D01*
X44474500Y-84273980D01*
X44474500Y-84085960D01*
X44474500Y-84085957D01*
X44474499Y-84085955D01*
X60345500Y-84085955D01*
X60345500Y-84273984D01*
X60382179Y-84458379D01*
X60382182Y-84458391D01*
X60454129Y-84632088D01*
X60454136Y-84632101D01*
X60558591Y-84788427D01*
X60558594Y-84788431D01*
X60691538Y-84921375D01*
X60691542Y-84921378D01*
X60847868Y-85025833D01*
X60847881Y-85025840D01*
X61021578Y-85097787D01*
X61021583Y-85097789D01*
X61205985Y-85134469D01*
X61205988Y-85134470D01*
X61205990Y-85134470D01*
X61394012Y-85134470D01*
X61394013Y-85134469D01*
X61578417Y-85097789D01*
X61752125Y-85025837D01*
X61908458Y-84921378D01*
X62041408Y-84788428D01*
X62145867Y-84632095D01*
X62217819Y-84458387D01*
X62254500Y-84273980D01*
X62254500Y-84085960D01*
X62254500Y-84085957D01*
X62254499Y-84085955D01*
X62217820Y-83901560D01*
X62217819Y-83901553D01*
X62217817Y-83901548D01*
X62145870Y-83727851D01*
X62145863Y-83727838D01*
X62041408Y-83571512D01*
X62041405Y-83571508D01*
X61908461Y-83438564D01*
X61908457Y-83438561D01*
X61752131Y-83334106D01*
X61752118Y-83334099D01*
X61578421Y-83262152D01*
X61578409Y-83262149D01*
X61394013Y-83225470D01*
X61394010Y-83225470D01*
X61205990Y-83225470D01*
X61205987Y-83225470D01*
X61021590Y-83262149D01*
X61021578Y-83262152D01*
X60847881Y-83334099D01*
X60847868Y-83334106D01*
X60691542Y-83438561D01*
X60691538Y-83438564D01*
X60558594Y-83571508D01*
X60558591Y-83571512D01*
X60454136Y-83727838D01*
X60454129Y-83727851D01*
X60382182Y-83901548D01*
X60382179Y-83901560D01*
X60345500Y-84085955D01*
X44474499Y-84085955D01*
X44437820Y-83901560D01*
X44437819Y-83901553D01*
X44437817Y-83901548D01*
X44365870Y-83727851D01*
X44365863Y-83727838D01*
X44261408Y-83571512D01*
X44261405Y-83571508D01*
X44128461Y-83438564D01*
X44128457Y-83438561D01*
X43972131Y-83334106D01*
X43972118Y-83334099D01*
X43798421Y-83262152D01*
X43798409Y-83262149D01*
X43614013Y-83225470D01*
X43614010Y-83225470D01*
X43425990Y-83225470D01*
X43425987Y-83225470D01*
X43241590Y-83262149D01*
X43241578Y-83262152D01*
X43067881Y-83334099D01*
X43067868Y-83334106D01*
X42911542Y-83438561D01*
X42911538Y-83438564D01*
X42778594Y-83571508D01*
X42778591Y-83571512D01*
X42674136Y-83727838D01*
X42674129Y-83727851D01*
X42602182Y-83901548D01*
X42602179Y-83901560D01*
X42565500Y-84085955D01*
X41500000Y-84085955D01*
X41500000Y-81545955D01*
X42565500Y-81545955D01*
X42565500Y-81733984D01*
X42602179Y-81918379D01*
X42602182Y-81918391D01*
X42674129Y-82092088D01*
X42674136Y-82092101D01*
X42778591Y-82248427D01*
X42778594Y-82248431D01*
X42911538Y-82381375D01*
X42911542Y-82381378D01*
X43067868Y-82485833D01*
X43067881Y-82485840D01*
X43241578Y-82557787D01*
X43241583Y-82557789D01*
X43425985Y-82594469D01*
X43425988Y-82594470D01*
X43425990Y-82594470D01*
X43614012Y-82594470D01*
X43614013Y-82594469D01*
X43798417Y-82557789D01*
X43972125Y-82485837D01*
X44128458Y-82381378D01*
X44261408Y-82248428D01*
X44365867Y-82092095D01*
X44437819Y-81918387D01*
X44474500Y-81733980D01*
X44474500Y-81545960D01*
X44474500Y-81545957D01*
X44474499Y-81545955D01*
X60345500Y-81545955D01*
X60345500Y-81733984D01*
X60382179Y-81918379D01*
X60382182Y-81918391D01*
X60454129Y-82092088D01*
X60454136Y-82092101D01*
X60558591Y-82248427D01*
X60558594Y-82248431D01*
X60691538Y-82381375D01*
X60691542Y-82381378D01*
X60847868Y-82485833D01*
X60847881Y-82485840D01*
X61021578Y-82557787D01*
X61021583Y-82557789D01*
X61205985Y-82594469D01*
X61205988Y-82594470D01*
X61205990Y-82594470D01*
X61394012Y-82594470D01*
X61394013Y-82594469D01*
X61578417Y-82557789D01*
X61752125Y-82485837D01*
X61908458Y-82381378D01*
X62041408Y-82248428D01*
X62145867Y-82092095D01*
X62217819Y-81918387D01*
X62254500Y-81733980D01*
X62254500Y-81545960D01*
X62254500Y-81545957D01*
X62254499Y-81545955D01*
X62217820Y-81361560D01*
X62217819Y-81361553D01*
X62217817Y-81361548D01*
X62145870Y-81187851D01*
X62145863Y-81187838D01*
X62041408Y-81031512D01*
X62041405Y-81031508D01*
X61908461Y-80898564D01*
X61908457Y-80898561D01*
X61752131Y-80794106D01*
X61752118Y-80794099D01*
X61578421Y-80722152D01*
X61578409Y-80722149D01*
X61394013Y-80685470D01*
X61394010Y-80685470D01*
X61205990Y-80685470D01*
X61205987Y-80685470D01*
X61021590Y-80722149D01*
X61021578Y-80722152D01*
X60847881Y-80794099D01*
X60847868Y-80794106D01*
X60691542Y-80898561D01*
X60691538Y-80898564D01*
X60558594Y-81031508D01*
X60558591Y-81031512D01*
X60454136Y-81187838D01*
X60454129Y-81187851D01*
X60382182Y-81361548D01*
X60382179Y-81361560D01*
X60345500Y-81545955D01*
X44474499Y-81545955D01*
X44437820Y-81361560D01*
X44437819Y-81361553D01*
X44437817Y-81361548D01*
X44365870Y-81187851D01*
X44365863Y-81187838D01*
X44261408Y-81031512D01*
X44261405Y-81031508D01*
X44128461Y-80898564D01*
X44128457Y-80898561D01*
X43972131Y-80794106D01*
X43972118Y-80794099D01*
X43798421Y-80722152D01*
X43798409Y-80722149D01*
X43614013Y-80685470D01*
X43614010Y-80685470D01*
X43425990Y-80685470D01*
X43425987Y-80685470D01*
X43241590Y-80722149D01*
X43241578Y-80722152D01*
X43067881Y-80794099D01*
X43067868Y-80794106D01*
X42911542Y-80898561D01*
X42911538Y-80898564D01*
X42778594Y-81031508D01*
X42778591Y-81031512D01*
X42674136Y-81187838D01*
X42674129Y-81187851D01*
X42602182Y-81361548D01*
X42602179Y-81361560D01*
X42565500Y-81545955D01*
X41500000Y-81545955D01*
X41500000Y-79005954D01*
X42565500Y-79005954D01*
X42565500Y-79193983D01*
X42602179Y-79378378D01*
X42602182Y-79378390D01*
X42674129Y-79552087D01*
X42674136Y-79552100D01*
X42778591Y-79708426D01*
X42778594Y-79708430D01*
X42911538Y-79841374D01*
X42911542Y-79841377D01*
X43067868Y-79945832D01*
X43067881Y-79945839D01*
X43241578Y-80017786D01*
X43241583Y-80017788D01*
X43425985Y-80054468D01*
X43425988Y-80054469D01*
X43425990Y-80054469D01*
X43614012Y-80054469D01*
X43614013Y-80054468D01*
X43798417Y-80017788D01*
X43972125Y-79945836D01*
X44128458Y-79841377D01*
X44261408Y-79708427D01*
X44365867Y-79552094D01*
X44437819Y-79378386D01*
X44474500Y-79193979D01*
X44474500Y-79005959D01*
X44474500Y-79005956D01*
X44474499Y-79005954D01*
X60345500Y-79005954D01*
X60345500Y-79193983D01*
X60382179Y-79378378D01*
X60382182Y-79378390D01*
X60454129Y-79552087D01*
X60454136Y-79552100D01*
X60558591Y-79708426D01*
X60558594Y-79708430D01*
X60691538Y-79841374D01*
X60691542Y-79841377D01*
X60847868Y-79945832D01*
X60847881Y-79945839D01*
X61021578Y-80017786D01*
X61021583Y-80017788D01*
X61205985Y-80054468D01*
X61205988Y-80054469D01*
X61205990Y-80054469D01*
X61394012Y-80054469D01*
X61394013Y-80054468D01*
X61578417Y-80017788D01*
X61752125Y-79945836D01*
X61908458Y-79841377D01*
X62041408Y-79708427D01*
X62145867Y-79552094D01*
X62217819Y-79378386D01*
X62254500Y-79193979D01*
X62254500Y-79005959D01*
X62254500Y-79005956D01*
X62254499Y-79005954D01*
X62217820Y-78821559D01*
X62217819Y-78821552D01*
X62201353Y-78781799D01*
X62145870Y-78647850D01*
X62145863Y-78647837D01*
X62041408Y-78491511D01*
X62041405Y-78491507D01*
X61908461Y-78358563D01*
X61908457Y-78358560D01*
X61752131Y-78254105D01*
X61752118Y-78254098D01*
X61578421Y-78182151D01*
X61578409Y-78182148D01*
X61394013Y-78145469D01*
X61394010Y-78145469D01*
X61205990Y-78145469D01*
X61205987Y-78145469D01*
X61021590Y-78182148D01*
X61021578Y-78182151D01*
X60847881Y-78254098D01*
X60847868Y-78254105D01*
X60691542Y-78358560D01*
X60691538Y-78358563D01*
X60558594Y-78491507D01*
X60558591Y-78491511D01*
X60454136Y-78647837D01*
X60454129Y-78647850D01*
X60382182Y-78821547D01*
X60382179Y-78821559D01*
X60345500Y-79005954D01*
X44474499Y-79005954D01*
X44437820Y-78821559D01*
X44437819Y-78821552D01*
X44421353Y-78781799D01*
X44365870Y-78647850D01*
X44365863Y-78647837D01*
X44261408Y-78491511D01*
X44261405Y-78491507D01*
X44128461Y-78358563D01*
X44128457Y-78358560D01*
X43972131Y-78254105D01*
X43972118Y-78254098D01*
X43798421Y-78182151D01*
X43798409Y-78182148D01*
X43614013Y-78145469D01*
X43614010Y-78145469D01*
X43425990Y-78145469D01*
X43425987Y-78145469D01*
X43241590Y-78182148D01*
X43241578Y-78182151D01*
X43067881Y-78254098D01*
X43067868Y-78254105D01*
X42911542Y-78358560D01*
X42911538Y-78358563D01*
X42778594Y-78491507D01*
X42778591Y-78491511D01*
X42674136Y-78647837D01*
X42674129Y-78647850D01*
X42602182Y-78821547D01*
X42602179Y-78821559D01*
X42565500Y-79005954D01*
X41500000Y-79005954D01*
X41500000Y-77780300D01*
X57998420Y-77780300D01*
X57998420Y-77959899D01*
X58033454Y-78136025D01*
X58033456Y-78136033D01*
X58102180Y-78301950D01*
X58201956Y-78451274D01*
X58201959Y-78451278D01*
X58328941Y-78578260D01*
X58328945Y-78578263D01*
X58478269Y-78678039D01*
X58561227Y-78712401D01*
X58644187Y-78746764D01*
X58820320Y-78781799D01*
X58820323Y-78781800D01*
X58820325Y-78781800D01*
X58999917Y-78781800D01*
X58999918Y-78781799D01*
X59176053Y-78746764D01*
X59341972Y-78678038D01*
X59491295Y-78578263D01*
X59618283Y-78451275D01*
X59718058Y-78301952D01*
X59786784Y-78136033D01*
X59821820Y-77959895D01*
X59821820Y-77780305D01*
X59821820Y-77780302D01*
X59821819Y-77780300D01*
X59786785Y-77604174D01*
X59786784Y-77604167D01*
X59734437Y-77477790D01*
X59718059Y-77438249D01*
X59618283Y-77288925D01*
X59618280Y-77288921D01*
X59491298Y-77161939D01*
X59491294Y-77161936D01*
X59341970Y-77062160D01*
X59176053Y-76993436D01*
X59176045Y-76993434D01*
X58999918Y-76958400D01*
X58999915Y-76958400D01*
X58820325Y-76958400D01*
X58820322Y-76958400D01*
X58644194Y-76993434D01*
X58644186Y-76993436D01*
X58478269Y-77062160D01*
X58328945Y-77161936D01*
X58328941Y-77161939D01*
X58201959Y-77288921D01*
X58201956Y-77288925D01*
X58102180Y-77438249D01*
X58033456Y-77604166D01*
X58033454Y-77604174D01*
X57998420Y-77780300D01*
X41500000Y-77780300D01*
X41500000Y-76465955D01*
X42565500Y-76465955D01*
X42565500Y-76653984D01*
X42602179Y-76838379D01*
X42602182Y-76838391D01*
X42674129Y-77012088D01*
X42674136Y-77012101D01*
X42778591Y-77168427D01*
X42778594Y-77168431D01*
X42911538Y-77301375D01*
X42911542Y-77301378D01*
X43067868Y-77405833D01*
X43067881Y-77405840D01*
X43241578Y-77477787D01*
X43241583Y-77477789D01*
X43425985Y-77514469D01*
X43425988Y-77514470D01*
X43425990Y-77514470D01*
X43614012Y-77514470D01*
X43614013Y-77514469D01*
X43798417Y-77477789D01*
X43972125Y-77405837D01*
X44128458Y-77301378D01*
X44261408Y-77168428D01*
X44365867Y-77012095D01*
X44437819Y-76838387D01*
X44474500Y-76653980D01*
X44474500Y-76465960D01*
X44474500Y-76465957D01*
X44474499Y-76465955D01*
X44446051Y-76322933D01*
X44437820Y-76281558D01*
X44437819Y-76281557D01*
X44437819Y-76281553D01*
X44437817Y-76281548D01*
X44365870Y-76107851D01*
X44365863Y-76107838D01*
X44261408Y-75951512D01*
X44261405Y-75951508D01*
X44128461Y-75818564D01*
X44128457Y-75818561D01*
X43972131Y-75714106D01*
X43972118Y-75714099D01*
X43798421Y-75642152D01*
X43798409Y-75642149D01*
X43614013Y-75605470D01*
X43614010Y-75605470D01*
X43425990Y-75605470D01*
X43425987Y-75605470D01*
X43241590Y-75642149D01*
X43241578Y-75642152D01*
X43067881Y-75714099D01*
X43067868Y-75714106D01*
X42911542Y-75818561D01*
X42911538Y-75818564D01*
X42778594Y-75951508D01*
X42778591Y-75951512D01*
X42674136Y-76107838D01*
X42674129Y-76107851D01*
X42602182Y-76281548D01*
X42602179Y-76281560D01*
X42565500Y-76465955D01*
X41500000Y-76465955D01*
X41500000Y-73921272D01*
X42266000Y-73921272D01*
X42266000Y-74118667D01*
X42296876Y-74313616D01*
X42357873Y-74501343D01*
X42447483Y-74677209D01*
X42473457Y-74712958D01*
X42473457Y-74712959D01*
X43037037Y-74149379D01*
X43054075Y-74212963D01*
X43119901Y-74326977D01*
X43212993Y-74420069D01*
X43327007Y-74485895D01*
X43390590Y-74502932D01*
X42827009Y-75066511D01*
X42827010Y-75066512D01*
X42862755Y-75092482D01*
X42862768Y-75092490D01*
X43038626Y-75182096D01*
X43226353Y-75243093D01*
X43421303Y-75273970D01*
X43618697Y-75273970D01*
X43813646Y-75243093D01*
X43839240Y-75234777D01*
X57698920Y-75234777D01*
X57698920Y-75425422D01*
X57728744Y-75613724D01*
X57728744Y-75613727D01*
X57787655Y-75795036D01*
X57874212Y-75964913D01*
X57894217Y-75992447D01*
X57894218Y-75992447D01*
X58462103Y-75424562D01*
X58484078Y-75506573D01*
X58544269Y-75610827D01*
X58629393Y-75695951D01*
X58733647Y-75756142D01*
X58815656Y-75778116D01*
X58247771Y-76346000D01*
X58275314Y-76366011D01*
X58445183Y-76452564D01*
X58626493Y-76511475D01*
X58814798Y-76541300D01*
X59005442Y-76541300D01*
X59193744Y-76511475D01*
X59193747Y-76511475D01*
X59333843Y-76465955D01*
X60345500Y-76465955D01*
X60345500Y-76653984D01*
X60382179Y-76838379D01*
X60382182Y-76838391D01*
X60454129Y-77012088D01*
X60454136Y-77012101D01*
X60558591Y-77168427D01*
X60558594Y-77168431D01*
X60691538Y-77301375D01*
X60691542Y-77301378D01*
X60847868Y-77405833D01*
X60847881Y-77405840D01*
X61021578Y-77477787D01*
X61021583Y-77477789D01*
X61205985Y-77514469D01*
X61205988Y-77514470D01*
X61205990Y-77514470D01*
X61394012Y-77514470D01*
X61394013Y-77514469D01*
X61578417Y-77477789D01*
X61752125Y-77405837D01*
X61908458Y-77301378D01*
X62041408Y-77168428D01*
X62145867Y-77012095D01*
X62217819Y-76838387D01*
X62254500Y-76653980D01*
X62254500Y-76465960D01*
X62254500Y-76465957D01*
X62254499Y-76465955D01*
X62233334Y-76359551D01*
X62217819Y-76281553D01*
X62217817Y-76281548D01*
X62145870Y-76107851D01*
X62145863Y-76107838D01*
X62041408Y-75951512D01*
X62041405Y-75951508D01*
X61908461Y-75818564D01*
X61908457Y-75818561D01*
X61752131Y-75714106D01*
X61752118Y-75714099D01*
X61578421Y-75642152D01*
X61578409Y-75642149D01*
X61394013Y-75605470D01*
X61394010Y-75605470D01*
X61205990Y-75605470D01*
X61205987Y-75605470D01*
X61021590Y-75642149D01*
X61021578Y-75642152D01*
X60847881Y-75714099D01*
X60847868Y-75714106D01*
X60691542Y-75818561D01*
X60691538Y-75818564D01*
X60558594Y-75951508D01*
X60558591Y-75951512D01*
X60454136Y-76107838D01*
X60454129Y-76107851D01*
X60382182Y-76281548D01*
X60382179Y-76281560D01*
X60345500Y-76465955D01*
X59333843Y-76465955D01*
X59375056Y-76452564D01*
X59544919Y-76366014D01*
X59544927Y-76366009D01*
X59553817Y-76359551D01*
X59553818Y-76359550D01*
X59553819Y-76359550D01*
X59572467Y-76346000D01*
X59572468Y-76346000D01*
X59004584Y-75778116D01*
X59086593Y-75756142D01*
X59190847Y-75695951D01*
X59275971Y-75610827D01*
X59336162Y-75506573D01*
X59358136Y-75424563D01*
X59926020Y-75992448D01*
X59926021Y-75992447D01*
X59946026Y-75964912D01*
X59946034Y-75964899D01*
X60032584Y-75795036D01*
X60091495Y-75613727D01*
X60091495Y-75613724D01*
X60121320Y-75425422D01*
X60121320Y-75234777D01*
X60091497Y-75046482D01*
X60091492Y-75046465D01*
X60032584Y-74865163D01*
X59946031Y-74695294D01*
X59926020Y-74667751D01*
X59358136Y-75235635D01*
X59336162Y-75153627D01*
X59275971Y-75049373D01*
X59190847Y-74964249D01*
X59086593Y-74904058D01*
X59004583Y-74882083D01*
X59572467Y-74314198D01*
X59572467Y-74314197D01*
X59544933Y-74294192D01*
X59375056Y-74207635D01*
X59193746Y-74148724D01*
X59005442Y-74118900D01*
X58814798Y-74118900D01*
X58626495Y-74148724D01*
X58626492Y-74148724D01*
X58445183Y-74207635D01*
X58275308Y-74294191D01*
X58275303Y-74294195D01*
X58247771Y-74314196D01*
X58247771Y-74314199D01*
X58815656Y-74882083D01*
X58733647Y-74904058D01*
X58629393Y-74964249D01*
X58544269Y-75049373D01*
X58484078Y-75153627D01*
X58462103Y-75235636D01*
X57894219Y-74667751D01*
X57894216Y-74667751D01*
X57874215Y-74695283D01*
X57874211Y-74695288D01*
X57787655Y-74865163D01*
X57728744Y-75046472D01*
X57728744Y-75046475D01*
X57698920Y-75234777D01*
X43839240Y-75234777D01*
X44001373Y-75182096D01*
X44124381Y-75119420D01*
X44177241Y-75092486D01*
X44212988Y-75066513D01*
X44212988Y-75066511D01*
X43649410Y-74502932D01*
X43712993Y-74485895D01*
X43827007Y-74420069D01*
X43920099Y-74326977D01*
X43985925Y-74212963D01*
X44002962Y-74149379D01*
X44566541Y-74712958D01*
X44566543Y-74712958D01*
X44592516Y-74677211D01*
X44682126Y-74501341D01*
X44740029Y-74323139D01*
X44740029Y-74323138D01*
X44740030Y-74323136D01*
X44743122Y-74313618D01*
X44743122Y-74313617D01*
X44774000Y-74118667D01*
X44774000Y-73921272D01*
X60046000Y-73921272D01*
X60046000Y-74118667D01*
X60076876Y-74313616D01*
X60137873Y-74501343D01*
X60227483Y-74677209D01*
X60253457Y-74712958D01*
X60253457Y-74712959D01*
X60817037Y-74149379D01*
X60834075Y-74212963D01*
X60899901Y-74326977D01*
X60992993Y-74420069D01*
X61107007Y-74485895D01*
X61170590Y-74502932D01*
X60607009Y-75066511D01*
X60607010Y-75066512D01*
X60642755Y-75092482D01*
X60642768Y-75092490D01*
X60818626Y-75182096D01*
X61006353Y-75243093D01*
X61201303Y-75273970D01*
X61398697Y-75273970D01*
X61593646Y-75243093D01*
X61781373Y-75182096D01*
X61957241Y-75092486D01*
X61992988Y-75066513D01*
X61992988Y-75066511D01*
X61429410Y-74502932D01*
X61492993Y-74485895D01*
X61607007Y-74420069D01*
X61700099Y-74326977D01*
X61765925Y-74212963D01*
X61782962Y-74149379D01*
X62346541Y-74712958D01*
X62346543Y-74712958D01*
X62372516Y-74677211D01*
X62462126Y-74501343D01*
X62523123Y-74313616D01*
X62554000Y-74118667D01*
X62554000Y-73921272D01*
X62523123Y-73726323D01*
X62462126Y-73538596D01*
X62372520Y-73362738D01*
X62372512Y-73362725D01*
X62346542Y-73326980D01*
X62346541Y-73326979D01*
X61782962Y-73890559D01*
X61765925Y-73826977D01*
X61700099Y-73712963D01*
X61607007Y-73619871D01*
X61492993Y-73554045D01*
X61429409Y-73537007D01*
X61992989Y-72973427D01*
X61957239Y-72947453D01*
X61781373Y-72857843D01*
X61593646Y-72796846D01*
X61398697Y-72765970D01*
X61201303Y-72765970D01*
X61006353Y-72796846D01*
X60818626Y-72857843D01*
X60642762Y-72947452D01*
X60642760Y-72947453D01*
X60607010Y-72973426D01*
X60607010Y-72973427D01*
X61170591Y-73537007D01*
X61107007Y-73554045D01*
X60992993Y-73619871D01*
X60899901Y-73712963D01*
X60834075Y-73826977D01*
X60817037Y-73890560D01*
X60253457Y-73326980D01*
X60253456Y-73326980D01*
X60227483Y-73362730D01*
X60227482Y-73362732D01*
X60137873Y-73538596D01*
X60076876Y-73726323D01*
X60046000Y-73921272D01*
X44774000Y-73921272D01*
X44743123Y-73726323D01*
X44682126Y-73538596D01*
X44592520Y-73362738D01*
X44592512Y-73362725D01*
X44566542Y-73326980D01*
X44566541Y-73326979D01*
X44002962Y-73890559D01*
X43985925Y-73826977D01*
X43920099Y-73712963D01*
X43827007Y-73619871D01*
X43712993Y-73554045D01*
X43649409Y-73537007D01*
X44212989Y-72973427D01*
X44177239Y-72947453D01*
X44001373Y-72857843D01*
X43860725Y-72812144D01*
X43813646Y-72796846D01*
X43618697Y-72765970D01*
X43421303Y-72765970D01*
X43226353Y-72796846D01*
X43038626Y-72857843D01*
X42862762Y-72947452D01*
X42862760Y-72947453D01*
X42827010Y-72973426D01*
X42827010Y-72973427D01*
X43390591Y-73537007D01*
X43327007Y-73554045D01*
X43212993Y-73619871D01*
X43119901Y-73712963D01*
X43054075Y-73826977D01*
X43037037Y-73890560D01*
X42473457Y-73326980D01*
X42473456Y-73326980D01*
X42447483Y-73362730D01*
X42447482Y-73362732D01*
X42357873Y-73538596D01*
X42296876Y-73726323D01*
X42266000Y-73921272D01*
X41500000Y-73921272D01*
X41500000Y-72700300D01*
X57998420Y-72700300D01*
X57998420Y-72879899D01*
X58033454Y-73056025D01*
X58033456Y-73056033D01*
X58102180Y-73221950D01*
X58201956Y-73371274D01*
X58201959Y-73371278D01*
X58328941Y-73498260D01*
X58328945Y-73498263D01*
X58478269Y-73598039D01*
X58530977Y-73619871D01*
X58644187Y-73666764D01*
X58820320Y-73701799D01*
X58820323Y-73701800D01*
X58820325Y-73701800D01*
X58999917Y-73701800D01*
X58999918Y-73701799D01*
X59176053Y-73666764D01*
X59341972Y-73598038D01*
X59491295Y-73498263D01*
X59618283Y-73371275D01*
X59718058Y-73221952D01*
X59786784Y-73056033D01*
X59808382Y-72947452D01*
X59821820Y-72879897D01*
X59821820Y-72700302D01*
X59821819Y-72700300D01*
X59786785Y-72524174D01*
X59786784Y-72524167D01*
X59734437Y-72397790D01*
X59718059Y-72358249D01*
X59618283Y-72208925D01*
X59618280Y-72208921D01*
X59491298Y-72081939D01*
X59491294Y-72081936D01*
X59341970Y-71982160D01*
X59176053Y-71913436D01*
X59176045Y-71913434D01*
X58999918Y-71878400D01*
X58999915Y-71878400D01*
X58820325Y-71878400D01*
X58820322Y-71878400D01*
X58644194Y-71913434D01*
X58644186Y-71913436D01*
X58478269Y-71982160D01*
X58328945Y-72081936D01*
X58328941Y-72081939D01*
X58201959Y-72208921D01*
X58201956Y-72208925D01*
X58102180Y-72358249D01*
X58033456Y-72524166D01*
X58033454Y-72524174D01*
X57998420Y-72700300D01*
X41500000Y-72700300D01*
X41500000Y-71385955D01*
X42565500Y-71385955D01*
X42565500Y-71573984D01*
X42602179Y-71758379D01*
X42602182Y-71758391D01*
X42674129Y-71932088D01*
X42674136Y-71932101D01*
X42778591Y-72088427D01*
X42778594Y-72088431D01*
X42911538Y-72221375D01*
X42911542Y-72221378D01*
X43067868Y-72325833D01*
X43067881Y-72325840D01*
X43241578Y-72397787D01*
X43241583Y-72397789D01*
X43425985Y-72434469D01*
X43425988Y-72434470D01*
X43425990Y-72434470D01*
X43614012Y-72434470D01*
X43614013Y-72434469D01*
X43798417Y-72397789D01*
X43972125Y-72325837D01*
X44128458Y-72221378D01*
X44261408Y-72088428D01*
X44365867Y-71932095D01*
X44437819Y-71758387D01*
X44474500Y-71573980D01*
X44474500Y-71385960D01*
X44474500Y-71385957D01*
X44474499Y-71385955D01*
X60345500Y-71385955D01*
X60345500Y-71573984D01*
X60382179Y-71758379D01*
X60382182Y-71758391D01*
X60454129Y-71932088D01*
X60454136Y-71932101D01*
X60558591Y-72088427D01*
X60558594Y-72088431D01*
X60691538Y-72221375D01*
X60691542Y-72221378D01*
X60847868Y-72325833D01*
X60847881Y-72325840D01*
X61021578Y-72397787D01*
X61021583Y-72397789D01*
X61205985Y-72434469D01*
X61205988Y-72434470D01*
X61205990Y-72434470D01*
X61394012Y-72434470D01*
X61394013Y-72434469D01*
X61578417Y-72397789D01*
X61752125Y-72325837D01*
X61908458Y-72221378D01*
X62041408Y-72088428D01*
X62145867Y-71932095D01*
X62217819Y-71758387D01*
X62254500Y-71573980D01*
X62254500Y-71385960D01*
X62254500Y-71385957D01*
X62254499Y-71385955D01*
X62217820Y-71201560D01*
X62217819Y-71201553D01*
X62217817Y-71201548D01*
X62145870Y-71027851D01*
X62145863Y-71027838D01*
X62041408Y-70871512D01*
X62041405Y-70871508D01*
X61908461Y-70738564D01*
X61908457Y-70738561D01*
X61752131Y-70634106D01*
X61752118Y-70634099D01*
X61578421Y-70562152D01*
X61578409Y-70562149D01*
X61394013Y-70525470D01*
X61394010Y-70525470D01*
X61205990Y-70525470D01*
X61205987Y-70525470D01*
X61021590Y-70562149D01*
X61021578Y-70562152D01*
X60847881Y-70634099D01*
X60847868Y-70634106D01*
X60691542Y-70738561D01*
X60691538Y-70738564D01*
X60558594Y-70871508D01*
X60558591Y-70871512D01*
X60454136Y-71027838D01*
X60454129Y-71027851D01*
X60382182Y-71201548D01*
X60382179Y-71201560D01*
X60345500Y-71385955D01*
X44474499Y-71385955D01*
X44437820Y-71201560D01*
X44437819Y-71201553D01*
X44437817Y-71201548D01*
X44365870Y-71027851D01*
X44365863Y-71027838D01*
X44261408Y-70871512D01*
X44261405Y-70871508D01*
X44128461Y-70738564D01*
X44128457Y-70738561D01*
X43972131Y-70634106D01*
X43972118Y-70634099D01*
X43798421Y-70562152D01*
X43798409Y-70562149D01*
X43614013Y-70525470D01*
X43614010Y-70525470D01*
X43425990Y-70525470D01*
X43425987Y-70525470D01*
X43241590Y-70562149D01*
X43241578Y-70562152D01*
X43067881Y-70634099D01*
X43067868Y-70634106D01*
X42911542Y-70738561D01*
X42911538Y-70738564D01*
X42778594Y-70871508D01*
X42778591Y-70871512D01*
X42674136Y-71027838D01*
X42674129Y-71027851D01*
X42602182Y-71201548D01*
X42602179Y-71201560D01*
X42565500Y-71385955D01*
X41500000Y-71385955D01*
X41500000Y-68845985D01*
X42565500Y-68845985D01*
X42565500Y-69034014D01*
X42602179Y-69218409D01*
X42602182Y-69218421D01*
X42674129Y-69392118D01*
X42674136Y-69392131D01*
X42778591Y-69548457D01*
X42778594Y-69548461D01*
X42911538Y-69681405D01*
X42911542Y-69681408D01*
X43067868Y-69785863D01*
X43067881Y-69785870D01*
X43241578Y-69857817D01*
X43241583Y-69857819D01*
X43425985Y-69894499D01*
X43425988Y-69894500D01*
X43425990Y-69894500D01*
X43614012Y-69894500D01*
X43614013Y-69894499D01*
X43798417Y-69857819D01*
X43972125Y-69785867D01*
X44128458Y-69681408D01*
X44261408Y-69548458D01*
X44365867Y-69392125D01*
X44437819Y-69218417D01*
X44474500Y-69034010D01*
X44474500Y-68845990D01*
X44474500Y-68845987D01*
X44474499Y-68845985D01*
X60345500Y-68845985D01*
X60345500Y-69034014D01*
X60382179Y-69218409D01*
X60382182Y-69218421D01*
X60454129Y-69392118D01*
X60454136Y-69392131D01*
X60558591Y-69548457D01*
X60558594Y-69548461D01*
X60691538Y-69681405D01*
X60691542Y-69681408D01*
X60847868Y-69785863D01*
X60847881Y-69785870D01*
X61021578Y-69857817D01*
X61021583Y-69857819D01*
X61205985Y-69894499D01*
X61205988Y-69894500D01*
X61205990Y-69894500D01*
X61394012Y-69894500D01*
X61394013Y-69894499D01*
X61578417Y-69857819D01*
X61752125Y-69785867D01*
X61908458Y-69681408D01*
X62041408Y-69548458D01*
X62145867Y-69392125D01*
X62217819Y-69218417D01*
X62254500Y-69034010D01*
X62254500Y-68845990D01*
X62254500Y-68845987D01*
X62254499Y-68845985D01*
X62217820Y-68661590D01*
X62217819Y-68661583D01*
X62217817Y-68661578D01*
X62145870Y-68487881D01*
X62145863Y-68487868D01*
X62041408Y-68331542D01*
X62041405Y-68331538D01*
X61908461Y-68198594D01*
X61908457Y-68198591D01*
X61752131Y-68094136D01*
X61752118Y-68094129D01*
X61578421Y-68022182D01*
X61578409Y-68022179D01*
X61394013Y-67985500D01*
X61394010Y-67985500D01*
X61205990Y-67985500D01*
X61205987Y-67985500D01*
X61021590Y-68022179D01*
X61021578Y-68022182D01*
X60847881Y-68094129D01*
X60847868Y-68094136D01*
X60691542Y-68198591D01*
X60691538Y-68198594D01*
X60558594Y-68331538D01*
X60558591Y-68331542D01*
X60454136Y-68487868D01*
X60454129Y-68487881D01*
X60382182Y-68661578D01*
X60382179Y-68661590D01*
X60345500Y-68845985D01*
X44474499Y-68845985D01*
X44437820Y-68661590D01*
X44437819Y-68661583D01*
X44437817Y-68661578D01*
X44365870Y-68487881D01*
X44365863Y-68487868D01*
X44261408Y-68331542D01*
X44261405Y-68331538D01*
X44128461Y-68198594D01*
X44128457Y-68198591D01*
X43972131Y-68094136D01*
X43972118Y-68094129D01*
X43798421Y-68022182D01*
X43798409Y-68022179D01*
X43614013Y-67985500D01*
X43614010Y-67985500D01*
X43425990Y-67985500D01*
X43425987Y-67985500D01*
X43241590Y-68022179D01*
X43241578Y-68022182D01*
X43067881Y-68094129D01*
X43067868Y-68094136D01*
X42911542Y-68198591D01*
X42911538Y-68198594D01*
X42778594Y-68331538D01*
X42778591Y-68331542D01*
X42674136Y-68487868D01*
X42674129Y-68487881D01*
X42602182Y-68661578D01*
X42602179Y-68661590D01*
X42565500Y-68845985D01*
X41500000Y-68845985D01*
X41500000Y-61221302D01*
X42266000Y-61221302D01*
X42266000Y-61418697D01*
X42296876Y-61613646D01*
X42357873Y-61801373D01*
X42447483Y-61977239D01*
X42473457Y-62012988D01*
X42473457Y-62012989D01*
X43037037Y-61449409D01*
X43054075Y-61512993D01*
X43119901Y-61627007D01*
X43212993Y-61720099D01*
X43327007Y-61785925D01*
X43390590Y-61802962D01*
X42827009Y-62366541D01*
X42827010Y-62366542D01*
X42862755Y-62392512D01*
X42862768Y-62392520D01*
X43038626Y-62482126D01*
X43226353Y-62543123D01*
X43421303Y-62574000D01*
X43618697Y-62574000D01*
X43813646Y-62543123D01*
X44001373Y-62482126D01*
X44177241Y-62392516D01*
X44212988Y-62366543D01*
X44212988Y-62366541D01*
X43649410Y-61802962D01*
X43712993Y-61785925D01*
X43827007Y-61720099D01*
X43920099Y-61627007D01*
X43985925Y-61512993D01*
X44002962Y-61449409D01*
X44566541Y-62012988D01*
X44566543Y-62012988D01*
X44592516Y-61977241D01*
X44682126Y-61801373D01*
X44743123Y-61613646D01*
X44774000Y-61418697D01*
X44774000Y-61221302D01*
X44743123Y-61026353D01*
X44682126Y-60838626D01*
X44592520Y-60662768D01*
X44592512Y-60662755D01*
X44566542Y-60627010D01*
X44566541Y-60627009D01*
X44002962Y-61190589D01*
X43985925Y-61127007D01*
X43920099Y-61012993D01*
X43827007Y-60919901D01*
X43712993Y-60854075D01*
X43649409Y-60837037D01*
X44212989Y-60273457D01*
X44177239Y-60247483D01*
X44001373Y-60157873D01*
X43813646Y-60096876D01*
X43618697Y-60066000D01*
X43421303Y-60066000D01*
X43226353Y-60096876D01*
X43038626Y-60157873D01*
X42862762Y-60247482D01*
X42862760Y-60247483D01*
X42827010Y-60273456D01*
X42827010Y-60273457D01*
X43390591Y-60837037D01*
X43327007Y-60854075D01*
X43212993Y-60919901D01*
X43119901Y-61012993D01*
X43054075Y-61127007D01*
X43037037Y-61190590D01*
X42473457Y-60627010D01*
X42473456Y-60627010D01*
X42447483Y-60662760D01*
X42447482Y-60662762D01*
X42357873Y-60838626D01*
X42296876Y-61026353D01*
X42266000Y-61221302D01*
X41500000Y-61221302D01*
X41500000Y-48521302D01*
X42266000Y-48521302D01*
X42266000Y-48718697D01*
X42296876Y-48913646D01*
X42357873Y-49101373D01*
X42447483Y-49277239D01*
X42473457Y-49312988D01*
X42473457Y-49312989D01*
X43037037Y-48749409D01*
X43054075Y-48812993D01*
X43119901Y-48927007D01*
X43212993Y-49020099D01*
X43327007Y-49085925D01*
X43390590Y-49102962D01*
X42827009Y-49666541D01*
X42827010Y-49666542D01*
X42862755Y-49692512D01*
X42862768Y-49692520D01*
X43038626Y-49782126D01*
X43226353Y-49843123D01*
X43421303Y-49874000D01*
X43618697Y-49874000D01*
X43813646Y-49843123D01*
X44001373Y-49782126D01*
X44177241Y-49692516D01*
X44212988Y-49666543D01*
X44212988Y-49666541D01*
X43649410Y-49102962D01*
X43712993Y-49085925D01*
X43827007Y-49020099D01*
X43920099Y-48927007D01*
X43985925Y-48812993D01*
X44002962Y-48749409D01*
X44566541Y-49312988D01*
X44566543Y-49312988D01*
X44592516Y-49277241D01*
X44682126Y-49101373D01*
X44743123Y-48913646D01*
X44774000Y-48718697D01*
X44774000Y-48521302D01*
X44743123Y-48326353D01*
X44682126Y-48138626D01*
X44592520Y-47962768D01*
X44592512Y-47962755D01*
X44566542Y-47927010D01*
X44566541Y-47927009D01*
X44002962Y-48490589D01*
X43985925Y-48427007D01*
X43920099Y-48312993D01*
X43827007Y-48219901D01*
X43712993Y-48154075D01*
X43649409Y-48137037D01*
X44212989Y-47573457D01*
X44177239Y-47547483D01*
X44001373Y-47457873D01*
X43813646Y-47396876D01*
X43618697Y-47366000D01*
X43421303Y-47366000D01*
X43226353Y-47396876D01*
X43038626Y-47457873D01*
X42862762Y-47547482D01*
X42862760Y-47547483D01*
X42827010Y-47573456D01*
X42827010Y-47573457D01*
X43390591Y-48137037D01*
X43327007Y-48154075D01*
X43212993Y-48219901D01*
X43119901Y-48312993D01*
X43054075Y-48427007D01*
X43037037Y-48490590D01*
X42473457Y-47927010D01*
X42473456Y-47927010D01*
X42447483Y-47962760D01*
X42447482Y-47962762D01*
X42357873Y-48138626D01*
X42296876Y-48326353D01*
X42266000Y-48521302D01*
X41500000Y-48521302D01*
X41500000Y-45985985D01*
X42565500Y-45985985D01*
X42565500Y-46174014D01*
X42602179Y-46358409D01*
X42602182Y-46358421D01*
X42674129Y-46532118D01*
X42674136Y-46532131D01*
X42778591Y-46688457D01*
X42778594Y-46688461D01*
X42911538Y-46821405D01*
X42911542Y-46821408D01*
X43067868Y-46925863D01*
X43067881Y-46925870D01*
X43241578Y-46997817D01*
X43241583Y-46997819D01*
X43425985Y-47034499D01*
X43425988Y-47034500D01*
X43425990Y-47034500D01*
X43614012Y-47034500D01*
X43614013Y-47034499D01*
X43798417Y-46997819D01*
X43972125Y-46925867D01*
X44128458Y-46821408D01*
X44261408Y-46688458D01*
X44365867Y-46532125D01*
X44437819Y-46358417D01*
X44474500Y-46174010D01*
X44474500Y-45985990D01*
X44474500Y-45985987D01*
X44474499Y-45985985D01*
X44437820Y-45801590D01*
X44437819Y-45801583D01*
X44437817Y-45801578D01*
X44365870Y-45627881D01*
X44365863Y-45627868D01*
X44261408Y-45471542D01*
X44261405Y-45471538D01*
X44128461Y-45338594D01*
X44128457Y-45338591D01*
X43972131Y-45234136D01*
X43972118Y-45234129D01*
X43798421Y-45162182D01*
X43798409Y-45162179D01*
X43614013Y-45125500D01*
X43614010Y-45125500D01*
X43425990Y-45125500D01*
X43425987Y-45125500D01*
X43241590Y-45162179D01*
X43241578Y-45162182D01*
X43067881Y-45234129D01*
X43067868Y-45234136D01*
X42911542Y-45338591D01*
X42911538Y-45338594D01*
X42778594Y-45471538D01*
X42778591Y-45471542D01*
X42674136Y-45627868D01*
X42674129Y-45627881D01*
X42602182Y-45801578D01*
X42602179Y-45801590D01*
X42565500Y-45985985D01*
X41500000Y-45985985D01*
X41500000Y-42766247D01*
X42565500Y-42766247D01*
X42565500Y-44313752D01*
X42577131Y-44372229D01*
X42577132Y-44372230D01*
X42621447Y-44438552D01*
X42687769Y-44482867D01*
X42687770Y-44482868D01*
X42746247Y-44494499D01*
X42746250Y-44494500D01*
X42746252Y-44494500D01*
X44293750Y-44494500D01*
X44293751Y-44494499D01*
X44308568Y-44491552D01*
X44352229Y-44482868D01*
X44352229Y-44482867D01*
X44352231Y-44482867D01*
X44418552Y-44438552D01*
X44462867Y-44372231D01*
X44462867Y-44372229D01*
X44462868Y-44372229D01*
X44474499Y-44313752D01*
X44474500Y-44313750D01*
X44474500Y-44067548D01*
X45409740Y-44067548D01*
X45409740Y-44272251D01*
X45441762Y-44474434D01*
X45505021Y-44669123D01*
X45597955Y-44851513D01*
X45718268Y-45017113D01*
X45863026Y-45161871D01*
X46017989Y-45274456D01*
X46028630Y-45282187D01*
X46139329Y-45338591D01*
X46211016Y-45375118D01*
X46211018Y-45375118D01*
X46211021Y-45375120D01*
X46315377Y-45409027D01*
X46405705Y-45438377D01*
X46506797Y-45454388D01*
X46607888Y-45470400D01*
X46607889Y-45470400D01*
X46812591Y-45470400D01*
X46812592Y-45470400D01*
X47014774Y-45438377D01*
X47209459Y-45375120D01*
X47391850Y-45282187D01*
X47484830Y-45214632D01*
X47557453Y-45161871D01*
X47557455Y-45161868D01*
X47557459Y-45161866D01*
X47702206Y-45017119D01*
X47702208Y-45017115D01*
X47702211Y-45017113D01*
X47754972Y-44944490D01*
X47822527Y-44851510D01*
X47915460Y-44669119D01*
X47978717Y-44474434D01*
X48010740Y-44272252D01*
X48010740Y-44067548D01*
X56809520Y-44067548D01*
X56809520Y-44272251D01*
X56841542Y-44474434D01*
X56904801Y-44669123D01*
X56997735Y-44851513D01*
X57118048Y-45017113D01*
X57262806Y-45161871D01*
X57417769Y-45274456D01*
X57428410Y-45282187D01*
X57539109Y-45338591D01*
X57610796Y-45375118D01*
X57610798Y-45375118D01*
X57610801Y-45375120D01*
X57715157Y-45409027D01*
X57805485Y-45438377D01*
X57906577Y-45454388D01*
X58007668Y-45470400D01*
X58007669Y-45470400D01*
X58212371Y-45470400D01*
X58212372Y-45470400D01*
X58414554Y-45438377D01*
X58609239Y-45375120D01*
X58791630Y-45282187D01*
X58884610Y-45214632D01*
X58957233Y-45161871D01*
X58957235Y-45161868D01*
X58957239Y-45161866D01*
X59101986Y-45017119D01*
X59101988Y-45017115D01*
X59101991Y-45017113D01*
X59154752Y-44944490D01*
X59222307Y-44851510D01*
X59315240Y-44669119D01*
X59378497Y-44474434D01*
X59410520Y-44272252D01*
X59410520Y-44067548D01*
X59398573Y-43992118D01*
X59378497Y-43865365D01*
X59315238Y-43670676D01*
X59226334Y-43496193D01*
X59226333Y-43496189D01*
X59222309Y-43488292D01*
X59222307Y-43488289D01*
X59191572Y-43445985D01*
X60345500Y-43445985D01*
X60345500Y-43634014D01*
X60382179Y-43818409D01*
X60382182Y-43818421D01*
X60454129Y-43992118D01*
X60454136Y-43992131D01*
X60558591Y-44148457D01*
X60558594Y-44148461D01*
X60691538Y-44281405D01*
X60691542Y-44281408D01*
X60847868Y-44385863D01*
X60847881Y-44385870D01*
X60975068Y-44438552D01*
X61021583Y-44457819D01*
X61205985Y-44494499D01*
X61205988Y-44494500D01*
X61205990Y-44494500D01*
X61394012Y-44494500D01*
X61394013Y-44494499D01*
X61578417Y-44457819D01*
X61752125Y-44385867D01*
X61908458Y-44281408D01*
X62041408Y-44148458D01*
X62145867Y-43992125D01*
X62217819Y-43818417D01*
X62254500Y-43634010D01*
X62254500Y-43445990D01*
X62254500Y-43445987D01*
X62254499Y-43445985D01*
X62217820Y-43261590D01*
X62217819Y-43261583D01*
X62183168Y-43177928D01*
X62145870Y-43087881D01*
X62145863Y-43087868D01*
X62041408Y-42931542D01*
X62041405Y-42931538D01*
X61908461Y-42798594D01*
X61908457Y-42798591D01*
X61752131Y-42694136D01*
X61752118Y-42694129D01*
X61578421Y-42622182D01*
X61578409Y-42622179D01*
X61394013Y-42585500D01*
X61394010Y-42585500D01*
X61205990Y-42585500D01*
X61205987Y-42585500D01*
X61021590Y-42622179D01*
X61021578Y-42622182D01*
X60847881Y-42694129D01*
X60847868Y-42694136D01*
X60691542Y-42798591D01*
X60691538Y-42798594D01*
X60558594Y-42931538D01*
X60558591Y-42931542D01*
X60454136Y-43087868D01*
X60454129Y-43087881D01*
X60382182Y-43261578D01*
X60382179Y-43261590D01*
X60345500Y-43445985D01*
X59191572Y-43445985D01*
X59101991Y-43322686D01*
X58957233Y-43177928D01*
X58791633Y-43057615D01*
X58791632Y-43057614D01*
X58791630Y-43057613D01*
X58734673Y-43028591D01*
X58609243Y-42964681D01*
X58414554Y-42901422D01*
X58240015Y-42873778D01*
X58212372Y-42869400D01*
X58007668Y-42869400D01*
X57983349Y-42873251D01*
X57805485Y-42901422D01*
X57610796Y-42964681D01*
X57428406Y-43057615D01*
X57262806Y-43177928D01*
X57118048Y-43322686D01*
X56997735Y-43488286D01*
X56904801Y-43670676D01*
X56841542Y-43865365D01*
X56809520Y-44067548D01*
X48010740Y-44067548D01*
X47998793Y-43992118D01*
X47978717Y-43865365D01*
X47915458Y-43670676D01*
X47881743Y-43604507D01*
X47822527Y-43488290D01*
X47791795Y-43445990D01*
X47702211Y-43322686D01*
X47557453Y-43177928D01*
X47391853Y-43057615D01*
X47391852Y-43057614D01*
X47391850Y-43057613D01*
X47334893Y-43028591D01*
X47209463Y-42964681D01*
X47014774Y-42901422D01*
X46840235Y-42873778D01*
X46812592Y-42869400D01*
X46607888Y-42869400D01*
X46583569Y-42873251D01*
X46405705Y-42901422D01*
X46211016Y-42964681D01*
X46028626Y-43057615D01*
X45863026Y-43177928D01*
X45718268Y-43322686D01*
X45597955Y-43488286D01*
X45505021Y-43670676D01*
X45441762Y-43865365D01*
X45409740Y-44067548D01*
X44474500Y-44067548D01*
X44474500Y-42766249D01*
X44474499Y-42766247D01*
X44462868Y-42707770D01*
X44462867Y-42707769D01*
X44418552Y-42641447D01*
X44352230Y-42597132D01*
X44352229Y-42597131D01*
X44293752Y-42585500D01*
X44293748Y-42585500D01*
X42746252Y-42585500D01*
X42746247Y-42585500D01*
X42687770Y-42597131D01*
X42687769Y-42597132D01*
X42621447Y-42641447D01*
X42577132Y-42707769D01*
X42577131Y-42707770D01*
X42565500Y-42766247D01*
X41500000Y-42766247D01*
X41500000Y-42308125D01*
X41501061Y-42291940D01*
X41514906Y-42186776D01*
X41514906Y-42186775D01*
X41523284Y-42155508D01*
X41560740Y-42065081D01*
X41576923Y-42037050D01*
X41636513Y-41959392D01*
X41659392Y-41936513D01*
X41737050Y-41876923D01*
X41765079Y-41860740D01*
X41855509Y-41823283D01*
X41886775Y-41814906D01*
X41991941Y-41801061D01*
X42008126Y-41800000D01*
X62791874Y-41800000D01*
X62808059Y-41801061D01*
G37*
%TD.AperFunction*%
%TD*%
M02*
