M48
; DRILL file {KiCad 9.0.0-9.0.0-2~ubuntu24.04.1} date 2025-03-08T17:31:21+0000
; FORMAT={-:-/ absolute / inch / decimal}
; #@! TF.CreationDate,2025-03-08T17:31:21+00:00
; #@! TF.GenerationSoftware,Kicad,Pcbnew,9.0.0-9.0.0-2~ubuntu24.04.1
; #@! TF.FileFunction,Plated,1,2,PTH
FMAT,2
INCH
; #@! TA.AperFunction,Plated,PTH,ViaDrill
T1C0.0118
; #@! TA.AperFunction,Plated,PTH,ComponentDrill
T2C0.0256
; #@! TA.AperFunction,Plated,PTH,ComponentDrill
T3C0.0315
; #@! TA.AperFunction,Plated,PTH,ComponentDrill
T4C0.0360
; #@! TA.AperFunction,Plated,PTH,ComponentDrill
T5C0.0394
; #@! TA.AperFunction,Plated,PTH,ComponentDrill
T6C0.0433
; #@! TA.AperFunction,Plated,PTH,ComponentDrill
T7C0.0520
%
G90
G05
T1
X2.5472Y-2.685
X2.6949Y-3.9921
X3.0197Y-3.1693
X3.3661Y-3.311
X3.3661Y-3.5354
X3.5157Y-2.9409
X3.5157Y-3.2047
X3.5315Y-3.5236
X3.7559Y-2.9843
X3.8071Y-2.9134
X4.2768Y-2.3957
X4.439Y-2.2941
X4.4715Y-3.2358
T2
X2.9598Y-3.8449
X2.9598Y-3.8949
X2.9598Y-3.9449
X2.9598Y-3.9949
X2.9598Y-4.0449
X3.0098Y-3.8449
X3.0098Y-3.8949
X3.0098Y-3.9449
X3.0098Y-3.9949
X3.0098Y-4.0449
T3
X2.9094Y-1.7441
X2.9094Y-1.8441
X2.9094Y-1.9441
X2.9094Y-2.0441
X2.9094Y-2.1441
X2.9094Y-2.2441
X2.9094Y-2.3441
X2.9094Y-2.4441
X2.9094Y-2.5441
X3.2094Y-1.7441
X3.2094Y-1.8441
X3.2094Y-1.9441
X3.2094Y-2.0441
X3.2094Y-2.1441
X3.2094Y-2.2441
X3.2094Y-2.3441
X3.2094Y-2.4441
X3.2094Y-2.5441
T4
X2.3193Y-2.8658
X2.3193Y-2.9658
X2.3193Y-3.0658
T5
X1.7134Y-1.7142
X1.7134Y-1.8142
X1.7134Y-1.9142
X1.7134Y-2.0142
X1.7134Y-2.1142
X1.7134Y-2.2142
X1.7134Y-2.3142
X1.7134Y-2.4142
X1.7134Y-2.5142
X1.7134Y-2.6142
X1.7134Y-2.7142
X1.7134Y-2.8142
X1.7134Y-2.9142
X1.7134Y-3.0142
X1.7134Y-3.1142
X1.7134Y-3.2142
X1.7134Y-3.3142
X1.7134Y-3.4142
X1.7134Y-3.5142
X1.7134Y-3.6142
X2.4134Y-1.7142
X2.4134Y-1.8142
X2.4134Y-1.9142
X2.4134Y-2.0142
X2.4134Y-2.1142
X2.4134Y-2.2142
X2.4134Y-2.3142
X2.4134Y-2.4142
X2.4134Y-2.5142
X2.4134Y-2.6142
X2.4134Y-2.7142
X2.4134Y-2.8142
X2.4134Y-2.9142
X2.4134Y-3.0142
X2.4134Y-3.1142
X2.4134Y-3.2142
X2.4134Y-3.3142
X2.4134Y-3.4142
X2.4134Y-3.5142
X2.4134Y-3.6142
X2.6693Y-2.903
X2.6693Y-3.003
X2.8478Y-4.5394
X2.9478Y-4.5394
X3.277Y-4.5512
X3.377Y-4.5512
X3.939Y-2.5579
X3.939Y-2.7823
X4.039Y-2.5579
X4.039Y-2.7823
X4.139Y-2.5579
X4.139Y-2.7823
X4.239Y-2.5579
X4.239Y-2.7823
X4.339Y-2.5579
X4.339Y-2.7823
X4.439Y-2.5579
X4.439Y-2.7823
X4.539Y-2.5579
X4.539Y-2.7823
X4.639Y-2.5579
X4.639Y-2.7823
T6
X4.1323Y-3.739
X4.2323Y-3.739
X4.3323Y-3.739
T7
X3.9768Y-2.1138
X4.0768Y-2.0138
X4.1768Y-1.6138
X4.1768Y-2.1138
X4.2768Y-2.0138
X4.2768Y-2.2138
X4.3768Y-1.6138
X4.3768Y-2.1138
X4.4768Y-2.0138
X4.5768Y-2.1138
M30
