%TF.GenerationSoftware,KiCad,Pcbnew,9.0.0-9.0.0-2~ubuntu24.04.1*%
%TF.CreationDate,2025-03-08T17:31:25+00:00*%
%TF.ProjectId,g5500-net-interface,67353530-302d-46e6-9574-2d696e746572,rev?*%
%TF.SameCoordinates,Original*%
%TF.FileFunction,Soldermask,Bot*%
%TF.FilePolarity,Negative*%
%FSLAX46Y46*%
G04 Gerber Fmt 4.6, Leading zero omitted, Abs format (unit mm)*
G04 Created by KiCad (PCBNEW 9.0.0-9.0.0-2~ubuntu24.04.1) date 2025-03-08 17:31:25*
%MOMM*%
%LPD*%
G01*
G04 APERTURE LIST*
G04 Aperture macros list*
%AMRoundRect*
0 Rectangle with rounded corners*
0 $1 Rounding radius*
0 $2 $3 $4 $5 $6 $7 $8 $9 X,Y pos of 4 corners*
0 Add a 4 corners polygon primitive as box body*
4,1,4,$2,$3,$4,$5,$6,$7,$8,$9,$2,$3,0*
0 Add four circle primitives for the rounded corners*
1,1,$1+$1,$2,$3*
1,1,$1+$1,$4,$5*
1,1,$1+$1,$6,$7*
1,1,$1+$1,$8,$9*
0 Add four rect primitives between the rounded corners*
20,1,$1+$1,$2,$3,$4,$5,0*
20,1,$1+$1,$4,$5,$6,$7,0*
20,1,$1+$1,$6,$7,$8,$9,0*
20,1,$1+$1,$8,$9,$2,$3,0*%
G04 Aperture macros list end*
%ADD10R,1.700000X1.700000*%
%ADD11O,1.700000X1.700000*%
%ADD12C,3.500000*%
%ADD13R,1.905000X2.000000*%
%ADD14O,1.905000X2.000000*%
%ADD15C,1.981200*%
%ADD16C,2.794000*%
%ADD17RoundRect,0.250000X-0.950000X-0.550000X0.950000X-0.550000X0.950000X0.550000X-0.950000X0.550000X0*%
%ADD18O,2.400000X1.600000*%
%ADD19C,1.508000*%
%ADD20R,1.508000X1.508000*%
%ADD21C,2.100000*%
%ADD22C,1.422400*%
%ADD23R,1.000000X1.000000*%
%ADD24O,1.000000X1.000000*%
G04 APERTURE END LIST*
D10*
%TO.C,J6*%
X100050000Y-64970000D03*
D11*
X102590000Y-64970000D03*
X105130000Y-64970000D03*
X107670000Y-64970000D03*
X110210000Y-64970000D03*
X112750000Y-64970000D03*
X115290000Y-64970000D03*
X117830000Y-64970000D03*
%TD*%
D10*
%TO.C,J5*%
X100050000Y-70670000D03*
D11*
X102590000Y-70670000D03*
X105130000Y-70670000D03*
X107670000Y-70670000D03*
X110210000Y-70670000D03*
X112750000Y-70670000D03*
X115290000Y-70670000D03*
X117830000Y-70670000D03*
%TD*%
D12*
%TO.C,U3*%
X107500000Y-111630000D03*
D13*
X110040000Y-94970000D03*
D14*
X107500000Y-94970000D03*
X104960000Y-94970000D03*
%TD*%
D15*
%TO.C,J2*%
X108630000Y-51150000D03*
X103550000Y-51150000D03*
X113710000Y-51150000D03*
X106090000Y-53690000D03*
X111170000Y-53690000D03*
X116250000Y-53690000D03*
X108630000Y-56230000D03*
X101010000Y-53690000D03*
X106090000Y-40990000D03*
X111170000Y-40990000D03*
D16*
X116250000Y-46070000D03*
X101010000Y-46070000D03*
%TD*%
D17*
%TO.C,U4*%
X73900000Y-44300000D03*
D18*
X73900000Y-46840000D03*
X73900000Y-49380000D03*
X73900000Y-51920000D03*
X73900000Y-54460000D03*
X73900000Y-57000000D03*
X73900000Y-59540000D03*
X73900000Y-62080000D03*
X73900000Y-64620000D03*
X81520000Y-64620000D03*
X81520000Y-62080000D03*
X81520000Y-59540000D03*
X81520000Y-57000000D03*
X81520000Y-54460000D03*
X81520000Y-51920000D03*
X81520000Y-49380000D03*
X81520000Y-46840000D03*
X81520000Y-44300000D03*
%TD*%
D19*
%TO.C,U1*%
X61300000Y-91800000D03*
X43520000Y-91800000D03*
X61300000Y-89259970D03*
X43520000Y-89259970D03*
X61300000Y-86719970D03*
X43520000Y-86719970D03*
X61300000Y-84179970D03*
X43520000Y-84179970D03*
X61300000Y-81639970D03*
X43520000Y-81639970D03*
X61300000Y-79099969D03*
X43520000Y-79099969D03*
X61300000Y-76559970D03*
X43520000Y-76559970D03*
X61300000Y-74019970D03*
X43520000Y-74019970D03*
X61300000Y-71479970D03*
X43520000Y-71479970D03*
X61300000Y-68940000D03*
X43520000Y-68940000D03*
X61300000Y-66400000D03*
X43520000Y-66400000D03*
X61300000Y-63860000D03*
X43520000Y-63860000D03*
X61300000Y-61320000D03*
X43520000Y-61320000D03*
X61300000Y-58780000D03*
X43520000Y-58780000D03*
X61300000Y-56240000D03*
X43520000Y-56240000D03*
X61300000Y-53700000D03*
X43520000Y-53700000D03*
X61300000Y-51160000D03*
X43520000Y-51160000D03*
X61300000Y-48620000D03*
X43520000Y-48620000D03*
X61300000Y-46080000D03*
X43520000Y-46080000D03*
X61300000Y-43540000D03*
D20*
X43520000Y-43540000D03*
D21*
X58110020Y-44169900D03*
X46710240Y-44169900D03*
D22*
X58910120Y-77870100D03*
X58910120Y-75330100D03*
X58910120Y-72790100D03*
%TD*%
D10*
%TO.C,J4*%
X72335000Y-115300000D03*
D11*
X74875000Y-115300000D03*
%TD*%
D10*
%TO.C,J3*%
X83235000Y-115600000D03*
D11*
X85775000Y-115600000D03*
%TD*%
D10*
%TO.C,J1*%
X67800000Y-73735000D03*
D11*
X67800000Y-76275000D03*
%TD*%
D23*
%TO.C,J7*%
X76450000Y-102740000D03*
D24*
X75180000Y-102740000D03*
X76450000Y-101470000D03*
X75180000Y-101470000D03*
X76450000Y-100200000D03*
X75180000Y-100200000D03*
X76450000Y-98930000D03*
X75180000Y-98930000D03*
X76450000Y-97660000D03*
X75180000Y-97660000D03*
%TD*%
M02*
