%TF.GenerationSoftware,KiCad,Pcbnew,9.0.0-9.0.0-2~ubuntu24.04.1*%
%TF.CreationDate,2025-03-08T17:31:25+00:00*%
%TF.ProjectId,g5500-net-interface,67353530-302d-46e6-9574-2d696e746572,rev?*%
%TF.SameCoordinates,Original*%
%TF.FileFunction,Soldermask,Top*%
%TF.FilePolarity,Negative*%
%FSLAX46Y46*%
G04 Gerber Fmt 4.6, Leading zero omitted, Abs format (unit mm)*
G04 Created by KiCad (PCBNEW 9.0.0-9.0.0-2~ubuntu24.04.1) date 2025-03-08 17:31:25*
%MOMM*%
%LPD*%
G01*
G04 APERTURE LIST*
G04 Aperture macros list*
%AMRoundRect*
0 Rectangle with rounded corners*
0 $1 Rounding radius*
0 $2 $3 $4 $5 $6 $7 $8 $9 X,Y pos of 4 corners*
0 Add a 4 corners polygon primitive as box body*
4,1,4,$2,$3,$4,$5,$6,$7,$8,$9,$2,$3,0*
0 Add four circle primitives for the rounded corners*
1,1,$1+$1,$2,$3*
1,1,$1+$1,$4,$5*
1,1,$1+$1,$6,$7*
1,1,$1+$1,$8,$9*
0 Add four rect primitives between the rounded corners*
20,1,$1+$1,$2,$3,$4,$5,0*
20,1,$1+$1,$4,$5,$6,$7,0*
20,1,$1+$1,$6,$7,$8,$9,0*
20,1,$1+$1,$8,$9,$2,$3,0*%
G04 Aperture macros list end*
%ADD10RoundRect,0.237500X-0.237500X0.250000X-0.237500X-0.250000X0.237500X-0.250000X0.237500X0.250000X0*%
%ADD11R,1.700000X1.700000*%
%ADD12O,1.700000X1.700000*%
%ADD13C,3.500000*%
%ADD14R,1.905000X2.000000*%
%ADD15O,1.905000X2.000000*%
%ADD16C,2.185200*%
%ADD17C,2.794000*%
%ADD18RoundRect,0.250000X-0.950000X-0.550000X0.950000X-0.550000X0.950000X0.550000X-0.950000X0.550000X0*%
%ADD19O,2.400000X1.600000*%
%ADD20C,1.712000*%
%ADD21RoundRect,0.102000X-0.754000X-0.754000X0.754000X-0.754000X0.754000X0.754000X-0.754000X0.754000X0*%
%ADD22C,2.100000*%
%ADD23C,1.626400*%
%ADD24RoundRect,0.237500X-0.250000X-0.237500X0.250000X-0.237500X0.250000X0.237500X-0.250000X0.237500X0*%
%ADD25RoundRect,0.237500X0.237500X-0.250000X0.237500X0.250000X-0.237500X0.250000X-0.237500X-0.250000X0*%
%ADD26RoundRect,0.237500X0.287500X0.237500X-0.287500X0.237500X-0.287500X-0.237500X0.287500X-0.237500X0*%
%ADD27RoundRect,0.500000X1.250000X0.500000X-1.250000X0.500000X-1.250000X-0.500000X1.250000X-0.500000X0*%
%ADD28RoundRect,0.250000X3.250000X3.250000X-3.250000X3.250000X-3.250000X-3.250000X3.250000X-3.250000X0*%
%ADD29RoundRect,0.237500X0.237500X-0.300000X0.237500X0.300000X-0.237500X0.300000X-0.237500X-0.300000X0*%
%ADD30RoundRect,0.237500X-0.237500X0.300000X-0.237500X-0.300000X0.237500X-0.300000X0.237500X0.300000X0*%
%ADD31RoundRect,0.250000X-0.337500X-0.475000X0.337500X-0.475000X0.337500X0.475000X-0.337500X0.475000X0*%
%ADD32RoundRect,0.237500X0.300000X0.237500X-0.300000X0.237500X-0.300000X-0.237500X0.300000X-0.237500X0*%
%ADD33RoundRect,0.237500X-0.300000X-0.237500X0.300000X-0.237500X0.300000X0.237500X-0.300000X0.237500X0*%
%ADD34R,1.000000X1.000000*%
%ADD35O,1.000000X1.000000*%
G04 APERTURE END LIST*
D10*
%TO.C,R6*%
X85775000Y-112100000D03*
X85775000Y-110275000D03*
%TD*%
%TO.C,R1*%
X74875000Y-109975000D03*
X74875000Y-111800000D03*
%TD*%
D11*
%TO.C,J6*%
X100050000Y-64970000D03*
D12*
X102590000Y-64970000D03*
X105130000Y-64970000D03*
X107670000Y-64970000D03*
X110210000Y-64970000D03*
X112750000Y-64970000D03*
X115290000Y-64970000D03*
X117830000Y-64970000D03*
%TD*%
D11*
%TO.C,J5*%
X100050000Y-70670000D03*
D12*
X102590000Y-70670000D03*
X105130000Y-70670000D03*
X107670000Y-70670000D03*
X110210000Y-70670000D03*
X112750000Y-70670000D03*
X115290000Y-70670000D03*
X117830000Y-70670000D03*
%TD*%
D13*
%TO.C,U3*%
X107500000Y-111630000D03*
D14*
X110040000Y-94970000D03*
D15*
X107500000Y-94970000D03*
X104960000Y-94970000D03*
%TD*%
D16*
%TO.C,J2*%
X108630000Y-51150000D03*
X103550000Y-51150000D03*
X113710000Y-51150000D03*
X106090000Y-53690000D03*
X111170000Y-53690000D03*
X116250000Y-53690000D03*
X108630000Y-56230000D03*
X101010000Y-53690000D03*
X106090000Y-40990000D03*
X111170000Y-40990000D03*
D17*
X116250000Y-46070000D03*
X101010000Y-46070000D03*
%TD*%
D18*
%TO.C,U4*%
X73900000Y-44300000D03*
D19*
X73900000Y-46840000D03*
X73900000Y-49380000D03*
X73900000Y-51920000D03*
X73900000Y-54460000D03*
X73900000Y-57000000D03*
X73900000Y-59540000D03*
X73900000Y-62080000D03*
X73900000Y-64620000D03*
X81520000Y-64620000D03*
X81520000Y-62080000D03*
X81520000Y-59540000D03*
X81520000Y-57000000D03*
X81520000Y-54460000D03*
X81520000Y-51920000D03*
X81520000Y-49380000D03*
X81520000Y-46840000D03*
X81520000Y-44300000D03*
%TD*%
D20*
%TO.C,U1*%
X61300000Y-91800000D03*
X43520000Y-91800000D03*
X61300000Y-89259970D03*
X43520000Y-89259970D03*
X61300000Y-86719970D03*
X43520000Y-86719970D03*
X61300000Y-84179970D03*
X43520000Y-84179970D03*
X61300000Y-81639970D03*
X43520000Y-81639970D03*
X61300000Y-79099969D03*
X43520000Y-79099969D03*
X61300000Y-76559970D03*
X43520000Y-76559970D03*
X61300000Y-74019970D03*
X43520000Y-74019970D03*
X61300000Y-71479970D03*
X43520000Y-71479970D03*
X61300000Y-68940000D03*
X43520000Y-68940000D03*
X61300000Y-66400000D03*
X43520000Y-66400000D03*
X61300000Y-63860000D03*
X43520000Y-63860000D03*
X61300000Y-61320000D03*
X43520000Y-61320000D03*
X61300000Y-58780000D03*
X43520000Y-58780000D03*
X61300000Y-56240000D03*
X43520000Y-56240000D03*
X61300000Y-53700000D03*
X43520000Y-53700000D03*
X61300000Y-51160000D03*
X43520000Y-51160000D03*
X61300000Y-48620000D03*
X43520000Y-48620000D03*
X61300000Y-46080000D03*
X43520000Y-46080000D03*
X61300000Y-43540000D03*
D21*
X43520000Y-43540000D03*
D22*
X58110020Y-44169900D03*
X46710240Y-44169900D03*
D23*
X58910120Y-77870100D03*
X58910120Y-75330100D03*
X58910120Y-72790100D03*
%TD*%
D10*
%TO.C,R5*%
X69000000Y-62050000D03*
X69000000Y-63875000D03*
%TD*%
D24*
%TO.C,R4*%
X81375000Y-77500000D03*
X83200000Y-77500000D03*
%TD*%
D25*
%TO.C,R3*%
X69000000Y-68200000D03*
X69000000Y-66375000D03*
%TD*%
D24*
%TO.C,R2*%
X83200000Y-79300000D03*
X81375000Y-79300000D03*
%TD*%
D11*
%TO.C,J4*%
X72335000Y-115300000D03*
D12*
X74875000Y-115300000D03*
%TD*%
D11*
%TO.C,J3*%
X83235000Y-115600000D03*
D12*
X85775000Y-115600000D03*
%TD*%
D11*
%TO.C,J1*%
X67800000Y-73735000D03*
D12*
X67800000Y-76275000D03*
%TD*%
D26*
%TO.C,FB1*%
X100600000Y-94000000D03*
X98850000Y-94000000D03*
%TD*%
D27*
%TO.C,D1*%
X113575000Y-86770000D03*
D28*
X106175000Y-84470000D03*
D27*
X113575000Y-82190000D03*
%TD*%
D29*
%TO.C,C8*%
X66700000Y-63875000D03*
X66700000Y-62150000D03*
%TD*%
D30*
%TO.C,C7*%
X66700000Y-66475000D03*
X66700000Y-68200000D03*
%TD*%
D31*
%TO.C,C5*%
X105225000Y-92400000D03*
X107300000Y-92400000D03*
%TD*%
%TO.C,C4*%
X105225000Y-90200000D03*
X107300000Y-90200000D03*
%TD*%
D32*
%TO.C,C3*%
X110900000Y-92400000D03*
X109175000Y-92400000D03*
%TD*%
D33*
%TO.C,C2*%
X98975000Y-97200000D03*
X100700000Y-97200000D03*
%TD*%
D30*
%TO.C,C1*%
X66700000Y-56300000D03*
X66700000Y-58025000D03*
%TD*%
D34*
%TO.C,J7*%
X76450000Y-102740000D03*
D35*
X75180000Y-102740000D03*
X76450000Y-101470000D03*
X75180000Y-101470000D03*
X76450000Y-100200000D03*
X75180000Y-100200000D03*
X76450000Y-98930000D03*
X75180000Y-98930000D03*
X76450000Y-97660000D03*
X75180000Y-97660000D03*
%TD*%
M02*
